<?xml version="1.0" encoding="UTF-8"?>
<svg version="1.1" xmlns="http://www.w3.org/2000/svg" width="419" height="543" viewBox="0 0 419 543">
  <!-- Máscara de fondo -->
  <path d="M0 0 C138.27 0 276.54 0 419 0 C419 179.19 419 358.38 419 543 C280.73 543 142.46 543 0 543 C0 363.81 0 184.62 0 0 Z M167.125 54.375 C147.51887236 78.67555256 124.0210582 118.50247014 125.5859375 150.953125 C127.46107933 164.75133844 133.9320501 175.18346574 143.3984375 185.125 C145 187 145 187 146 190 C145.46125244 190.17088135 144.92250488 190.3417627 144.36743164 190.51782227 C113.85842537 200.41183689 94.73397803 216.72539422 80 245 C69.9114294 265.11534922 63.19393175 286.15822987 58 308 C57.84339905 308.65798584 57.6867981 309.31597168 57.52545166 309.99389648 C52.72817645 330.21454337 48.57182242 350.35976925 46 371 C45.8354834 372.29019043 45.6709668 373.58038086 45.50146484 374.90966797 C44.32002937 384.21355937 43.24396142 393.52686873 42.23431396 402.85089111 C42.00526188 404.95173846 41.77004121 407.05181813 41.53369141 409.15185547 C38.21555117 438.95520736 38.10744786 468.82152647 39.75 498.75 C39.81147217 500.01610107 39.87294434 501.28220215 39.9362793 502.58666992 C40.44817472 511.11822461 40.44817472 511.11822461 45 518 C54.55224389 523.95884226 66.86788075 523.19008084 77.75 523.25 C78.80292236 523.25926514 79.85584473 523.26853027 80.94067383 523.27807617 C92.52262254 523.2766028 92.52262254 523.2766028 103 519 C103.65118348 516.05444009 103.65118348 516.05444009 103.84375 512.54296875 C103.89798126 511.89208282 103.95221252 511.2411969 104.00808716 510.57058716 C104.12366503 509.17144193 104.23316274 507.77178386 104.33721924 506.37173462 C104.60999671 502.7115355 104.92698843 499.05518882 105.2421875 495.3984375 C105.30377045 494.67302261 105.36535339 493.94760773 105.42880249 493.20021057 C105.95043872 487.20385727 106.71001199 481.26188797 107.625 475.3125 C108.76380181 467.87589974 109.5954369 460.51929357 110 453 C115.40506615 466.12658923 116.49350898 478.80188267 116.6875 492.8125 C116.72075974 494.4876554 116.755257 496.1627867 116.79101562 497.83789062 C116.87491133 501.89179141 116.94217651 505.94564698 117 510 C125.76987784 512.66611463 134.35892052 514.82657442 143.4375 516.1875 C144.42169922 516.35185547 145.40589844 516.51621094 146.41992188 516.68554688 C169.32262162 520.20575026 192.97739489 519.18783548 216.08569336 519.18530273 C219.81132875 519.18522154 223.53684098 519.19216841 227.26245117 519.20581055 C266.81723623 519.82178051 266.81723623 519.82178051 305.875 514.5 C307.39867187 514.18095703 307.39867187 514.18095703 308.953125 513.85546875 C313.75635066 512.82800709 318.35113213 511.6006657 323 510 C323.01458252 509.02353516 323.02916504 508.04707031 323.04418945 507.04101562 C323.10320652 503.33544522 323.18040642 499.63041895 323.26245117 495.92529297 C323.29522403 494.33716823 323.32339515 492.74894028 323.34643555 491.16064453 C323.53216776 478.68102078 323.90577682 465.60450514 329 454 C330.40048199 461.17916979 331.1816023 468.20952346 331.53491211 475.51391602 C331.84713898 481.05415787 332.61512585 486.46220984 333.5 491.9375 C334.95415529 500.95186792 335.65743932 509.88079837 336 519 C337.546875 519.7115625 337.546875 519.7115625 339.125 520.4375 C339.70507812 520.70433594 340.28515625 520.97117187 340.8828125 521.24609375 C357.12048493 527.02814316 379.53591398 524.0714724 395.34375 518.1171875 C397.12393714 517.15510849 397.12393714 517.15510849 397.56933594 515.39526367 C400.66777601 498.16238639 399.22062752 479.52843331 399.24023438 462.0612793 C399.24460503 458.74476031 399.25846953 455.4285035 399.28125 452.11206055 C399.41977416 431.49646789 398.73908664 411.46978141 396 391 C395.77643094 389.19810872 395.55495586 387.39595594 395.3359375 385.59350586 C394.73218924 380.70079044 394.06993713 375.81804803 393.375 370.9375 C393.19041733 369.63925797 393.19041733 369.63925797 393.00210571 368.31478882 C385.50196528 316.2415459 375.12627413 245.83421784 333.15234375 209.29296875 C323.05223782 201.94629938 311.21962766 196.83437726 299.6875 192.15625 C297 191 297 191 294 189 C295.46164169 184.77056873 297.60732436 181.59547706 300.25 178 C307.83263546 167.39166025 313.25290166 156.31208014 312 143 C310.94208512 137.91165939 309.51389646 132.96593394 308 128 C307.66097656 126.84886719 307.32195312 125.69773437 306.97265625 124.51171875 C297.51617913 94.25772255 279.89013871 53.43814725 251 37 C240.00086623 32.61306225 229.59439441 31.79725562 217.875 31.75 C216.61945313 31.729375 215.36390625 31.70875 214.0703125 31.6875 C193.41033758 31.60177396 180.53820149 39.03029749 167.125 54.375 Z " fill="#FDFDFD" transform="translate(0,0)" />

  <!-- ZONA: Cuerpo (espalda) -->
  <g id="zona-cuerpo" fill="#1B2B4B">
    <path d="M0 0 C4.02401229 1.09789185 7.6906137 2.60794654 11.48046875 4.3359375 C12.64872192 4.86719238 12.64872192 4.86719238 13.84057617 5.40917969 C16.33224084 6.55684347 18.81367201 7.72431271 21.29296875 8.8984375 C22.1118457 9.28209473 22.93072266 9.66575195 23.77441406 10.06103516 C35.89881677 15.81568131 47.66530095 22.45693579 55.29296875 33.8984375 C54.84912109 36.29248047 54.84912109 36.29248047 53.87890625 39.140625 C53.35792358 40.72532593 53.35792358 40.72532593 52.82641602 42.34204102 C52.44412842 43.47440186 52.06184082 44.6067627 51.66796875 45.7734375 C48.91936906 54.27184569 46.4651093 62.66982372 44.85546875 71.4609375 C44.7044873 72.28513184 44.55350586 73.10932617 44.39794922 73.95849609 C40.77885915 94.79710561 41.16202009 116.00359701 41.25743794 137.0773375 C41.27140059 140.53622238 41.2776429 143.99511988 41.2842865 147.45402527 C41.308154 159.17113014 41.34430833 170.88818112 41.38891602 182.60522461 C41.41361584 189.11458688 41.43088129 195.62392908 41.4404754 202.13333148 C41.44588697 205.55690874 41.45508785 208.98037754 41.4738636 212.40390968 C41.6098817 239.16852122 41.6098817 239.16852122 39.29296875 251.8984375 C39.02093371 253.71075753 38.74989235 255.52322741 38.48046875 257.3359375 C37.58181973 262.07880734 36.26582757 266.6622273 34.85546875 271.2734375 C34.65010498 271.95204834 34.44474121 272.63065918 34.2331543 273.32983398 C31.7286058 281.22773897 31.7286058 281.22773897 29.29296875 283.8984375 C27.13844299 284.32089233 27.13844299 284.32089233 24.67407227 284.52880859 C23.44685204 284.63979385 23.44685204 284.63979385 22.19483948 284.75302124 C21.56722214 284.80100861 20.9396048 284.84899597 20.29296875 284.8984375 C20.29409668 283.70879395 20.29522461 282.51915039 20.29638672 281.29345703 C20.2926888 276.83871927 20.24965266 272.38504797 20.1953125 267.93066406 C20.17725239 266.010487 20.1695657 264.09018106 20.17285156 262.16992188 C20.30910582 247.00043437 20.30910582 247.00043437 13.29296875 233.8984375 C2.97747621 214.91195123 -3.70703125 192.55459867 -3.70703125 170.8984375 C-45.94703125 170.8984375 -88.18703125 170.8984375 -131.70703125 170.8984375 C-131.70703125 173.5384375 -131.70703125 176.1784375 -131.70703125 178.8984375 C-132.16259766 181.90771484 -132.16259766 181.90771484 -132.80859375 184.734375 C-133.04827881 185.78979492 -133.28796387 186.84521484 -133.53491211 187.93261719 C-133.79796143 189.03508789 -134.06101074 190.13755859 -134.33203125 191.2734375 C-134.60345947 192.42231445 -134.8748877 193.57119141 -135.15454102 194.75488281 C-143.21811437 228.08959727 -143.21811437 228.08959727 -152.01049805 238.43164062 C-157.59244136 245.4665822 -156.41881694 254.62332156 -156.39453125 263.1484375 C-156.40344302 265.62157404 -156.41942419 268.09431129 -156.44599915 270.56732178 C-156.46084541 272.09870706 -156.46475822 273.63024867 -156.45622253 275.16168213 C-156.47630873 278.90102132 -156.62336232 281.72361803 -158.70703125 284.8984375 C-161.45703125 284.7734375 -161.45703125 284.7734375 -164.70703125 283.8984375 C-168.87696152 279.25194377 -170.11807148 273.77764158 -171.70703125 267.8984375 C-171.95045226 267.05160306 -172.19387327 266.20476862 -172.44467068 265.33227253 C-178.12420752 245.36122809 -178.0937947 225.01733627 -177.8794868 204.42031693 C-177.84507993 200.67396742 -177.83220374 196.92754665 -177.81776428 193.18107605 C-177.7713056 182.09239539 -177.69405416 171.00396016 -177.60723877 159.91552734 C-177.53986238 151.27473202 -177.48234531 142.63409589 -177.45268828 133.99307841 C-177.43914465 130.29453794 -177.41785179 126.59644632 -177.37580681 122.89811134 C-177.11160994 99.30351255 -178.22963142 75.71340509 -185.33203125 53.0234375 C-185.63109375 52.00765625 -185.93015625 50.991875 -186.23828125 49.9453125 C-187.38329481 46.08469155 -188.56141157 42.2852677 -189.98046875 38.515625 C-190.84292759 35.40891841 -190.8627229 33.91097264 -189.70703125 30.8984375 C-180.24552664 20.06321171 -167.40757023 14.03760719 -154.70556641 7.87548828 C-152.79429519 6.94109939 -150.89675174 5.98296881 -149 5.01953125 C-147.87207031 4.46394531 -146.74414062 3.90835938 -145.58203125 3.3359375 C-144.58945313 2.83964844 -143.596875 2.34335938 -142.57421875 1.83203125 C-139.02320592 0.67577503 -137.27576912 0.80281224 -133.70703125 1.8984375 C-131.28953885 3.37438023 -129.05149586 4.86564397 -126.76953125 6.5234375 C-115.28741162 14.48608433 -103.37018727 19.69588385 -89.70703125 22.8984375 C-88.74667969 23.12402344 -87.78632813 23.34960938 -86.796875 23.58203125 C-66.39711954 27.65075827 -43.17670899 24.53819858 -24.70703125 14.8984375 C-23.53785156 14.28871094 -22.36867188 13.67898437 -21.1640625 13.05078125 C-14.96539845 9.7028004 -9.39154895 6.26830681 -4.55078125 1.05078125 C-2.70703125 -0.1015625 -2.70703125 -0.1015625 0 0 Z " transform="translate(287.70703125,191.1015625)" />
    <path d="M0 0 C0.66 0 1.32 0 2 0 C2 0.99 2 1.98 2 3 C2.99 3 3.98 3 5 3 C5 2.34 5 1.68 5 1 C12.04116007 0.15947098 18.96183852 -0.13968899 26.04931641 -0.11352539 C27.10416229 -0.11367142 28.15900818 -0.11381744 29.24581909 -0.1139679 C32.69775522 -0.11327679 36.14963592 -0.10552229 39.6015625 -0.09765625 C42.00865652 -0.09578922 44.41575092 -0.09436666 46.82284546 -0.09336853 C53.13235539 -0.08956583 59.441842 -0.07975488 65.75134277 -0.06866455 C72.20011072 -0.05840196 78.64888247 -0.05386055 85.09765625 -0.04882812 C97.73178074 -0.03813046 110.36588912 -0.02127576 123 0 C123.16408356 0.92307953 123.16408356 0.92307953 123.33148193 1.86480713 C123.83823736 4.70720627 124.34878672 7.54891197 124.859375 10.390625 C125.11726807 11.84202881 125.11726807 11.84202881 125.38037109 13.32275391 C128.16358009 28.76632757 132.27406388 42.69994127 139.00048828 56.88769531 C140.09402123 59.1986985 141.17990029 61.5121705 142.24609375 63.8359375 C142.58181396 64.56087402 142.91753418 65.28581055 143.26342773 66.03271484 C144 68 144 68 144 71 C144.99 71.33 145.98 71.66 147 72 C147.73091572 85.67939874 148.14236739 99.30109362 148 113 C137.71930434 114.81851928 127.47049145 116.26445668 117.0625 117.125 C116.16080078 117.20024902 115.25910156 117.27549805 114.33007812 117.35302734 C111.22128616 117.59471365 108.11196233 117.80302381 105 118 C103.99087555 118.06465454 103.99087555 118.06465454 102.96136475 118.13061523 C87.81296102 119.07279817 72.67459969 119.2403204 57.5 119.25 C55.6291272 119.25200912 55.6291272 119.25200912 53.72045898 119.25405884 C38.27103201 119.25047595 22.89645039 119.03030326 7.5 117.6875 C6.81075439 117.62864624 6.12150879 117.56979248 5.41137695 117.50915527 C-4.83781564 116.60144786 -14.89830513 114.89989569 -25 113 C-25.04934926 107.34001954 -25.08569529 101.68016364 -25.10986328 96.02001953 C-25.11993582 94.09356506 -25.13359443 92.16712592 -25.15087891 90.24072266 C-25.17507241 87.47554748 -25.18647036 84.710574 -25.1953125 81.9453125 C-25.20563507 81.0806839 -25.21595764 80.2160553 -25.22659302 79.32522583 C-25.22699106 77.21546479 -25.12265243 75.10619282 -25 73 C-24.01 72.01 -24.01 72.01 -23 71 C-22.38722093 69.64665856 -21.83361495 68.26621187 -21.3125 66.875 C-19.80826858 62.97410135 -18.19100386 59.15283958 -16.47314453 55.34326172 C-9.07014329 38.83437049 -5.13989163 22.26047542 -1.58496094 4.55932617 C-1 2 -1 2 0 0 Z " transform="translate(159,364)" />
  </g>

  <!-- ZONA: Manga Izquierda -->
  <g id="zona-manga-izq" fill="#1B2B4B">
    <path d="M0 0 C0.66 0 1.32 0 2 0 C5.15239589 7.23556601 7.30862602 14.43821 9.0625 22.125 C9.30548828 23.11886719 9.54847656 24.11273438 9.79882812 25.13671875 C14.21176309 44.21651715 15.46281327 63.53920457 15.3984375 83.0625 C15.40162218 85.20918436 15.4057839 87.35586746 15.4108429 89.50254822 C15.41913631 95.16978009 15.40627754 100.83675223 15.38631821 106.50394821 C15.37492083 110.02445541 15.36877936 113.54493834 15.36392212 117.06546021 C15.31780107 145.37531285 15.05942151 173.6578014 13.6875 201.9375 C13.59949127 203.79121216 13.59949127 203.79121216 13.50970459 205.68237305 C12.89060092 218.2086707 11.92716985 230.66570264 10.51953125 243.12890625 C10.39986496 244.18979965 10.28019867 245.25069305 10.15690613 246.34373474 C8.53808145 259.84441688 8.53808145 259.84441688 7 264 C1.33305496 268.28296569 -5.89499939 267.42230277 -12.74121094 267.33618164 C-14.73098693 267.31272415 -16.72102929 267.31735954 -18.7109375 267.32226562 C-28.78261282 267.2667604 -38.97699639 266.88746029 -48 262 C-52.14077685 257.58317136 -52.14888416 253.1313619 -52.1328125 247.3515625 C-52.13376923 246.58435883 -52.13472595 245.81715515 -52.13571167 245.02670288 C-52.13639318 243.39084797 -52.13454091 241.75499036 -52.13037109 240.11914062 C-52.12515407 237.69654664 -52.13024657 235.27414965 -52.13671875 232.8515625 C-52.14853112 213.54707798 -50.95821592 194.48646484 -48.75 175.3125 C-48.64017792 174.34432343 -48.53035583 173.37614685 -48.41720581 172.37863159 C-45.18958114 143.99184827 -41.09577245 115.92339219 -35 88 C-34.80470703 87.09217773 -34.60941406 86.18435547 -34.40820312 85.24902344 C-28.66567205 59.01934856 -19.48379513 19.48379513 0 0 Z " transform="translate(94,229)" />
  </g>

  <!-- ZONA: Manga Derecha -->
  <g id="zona-manga-der" fill="#1B2B4B">
    <path d="M0 0 C3.82503671 3.55134299 6.63777429 7.17746832 9.1875 11.75 C9.56696777 12.43046387 9.94643555 13.11092773 10.33740234 13.81201172 C23.55565754 38.38945238 30.96076963 65.92524811 37 93 C37.22429687 93.99257813 37.44859375 94.98515625 37.6796875 96.0078125 C47.67371538 140.56941915 52.95138604 187.23008441 53.17523193 232.88937378 C53.18332827 234.44727402 53.1943748 236.00516208 53.20855713 237.5630188 C53.34616459 254.43355736 53.34616459 254.43355736 51 261 C47.6912162 263.92457494 44.36819419 264.51544226 40.0625 265.125 C39.06347656 265.27195312 38.06445312 265.41890625 37.03515625 265.5703125 C36.03355469 265.71210938 35.03195312 265.85390625 34 266 C33.07243896 266.17039795 32.14487793 266.3407959 31.18920898 266.51635742 C25.81074894 267.33199926 20.43012718 267.18448995 15 267.1875 C13.83726562 267.19974609 12.67453125 267.21199219 11.4765625 267.22460938 C10.34992188 267.22654297 9.22328125 267.22847656 8.0625 267.23046875 C7.04285156 267.23457764 6.02320313 267.23868652 4.97265625 267.24291992 C0.71600042 266.89507395 -2.70689445 266.28227142 -5.80664062 263.20849609 C-26.35888794 225.17338373 -14.17360829 144.88068418 -14.24542618 102.11790085 C-14.24992519 99.91168587 -14.25761685 97.70550153 -14.26596069 95.4992981 C-14.33952628 73.05769805 -14.02642066 50.74355425 -9.125 28.75 C-8.88136719 27.57566406 -8.63773437 26.40132812 -8.38671875 25.19140625 C-4.40636498 6.60954748 -4.40636498 6.60954748 0 0 Z " transform="translate(344,229)" />
  </g>

  <!-- ZONA: Capucha Exterior (espalda) -->
  <g id="zona-capucha-ext" fill="#1B2B4B">
    <path d="M0 0 C3.52099093 -0.00972179 7.04140041 -0.04087102 10.56225586 -0.07226562 C24.55587328 -0.13550364 37.94294124 0.7874905 51.72436523 3.24023438 C50.29928455 25.52706569 44.13372983 52.83086978 27.72436523 69.24023438 C25.29109192 69.53457642 25.29109192 69.53457642 22.19238281 69.59423828 C21.03390335 69.61990875 19.87542389 69.64557922 18.68183899 69.67202759 C17.42356796 69.68680145 16.16529694 69.70157532 14.86889648 69.71679688 C13.57876144 69.73294037 12.2886264 69.74908386 10.95939636 69.76571655 C8.223099 69.79577782 5.48690553 69.81544703 2.75048828 69.83056641 C-0.74296703 69.85264227 -4.23385467 69.92135995 -7.72640514 70.00090981 C-11.06953166 70.06602838 -14.41239203 70.07481587 -17.75610352 70.09179688 C-19.00425339 70.12681305 -20.25240326 70.16182922 -21.53837585 70.19790649 C-30.02625889 70.15561212 -30.02625889 70.15561212 -33.57827759 67.55316162 C-35.39563961 65.52873672 -36.86030426 63.56033611 -38.27563477 61.24023438 C-38.73201828 60.49464264 -39.18840179 59.7490509 -39.65861511 58.98086548 C-48.58397981 43.44492776 -53.90876479 21.06527972 -53.27563477 3.24023438 C-35.77278763 -0.29465436 -17.78102969 0.02956729 0 0 Z " transform="translate(220.275634765625,124.759765625)" />
    <path d="M0 0 C0.77583939 0.00187317 1.55167877 0.00374634 2.35102844 0.00567627 C3.99439788 0.01239842 5.63775127 0.02631625 7.28100586 0.046875 C9.77408029 0.07779386 12.26651913 0.08782604 14.75976562 0.09375 C16.36068465 0.10293104 17.96159733 0.11331028 19.5625 0.125 C20.66763191 0.13137482 20.66763191 0.13137482 21.79508972 0.13787842 C26.63820096 0.20337179 31.31615414 0.65358708 36.11328125 1.328125 C38.66369406 10.6924449 39.63540651 19.517995 39.80078125 29.203125 C39.83324567 30.60946979 39.86630149 32.01580104 39.89990234 33.42211914 C40.1586119 45.20102761 40.21276507 56.98424383 40.23828125 68.765625 C40.24105072 69.63257996 40.24382019 70.49953491 40.24667358 71.39276123 C40.25242927 73.8491256 40.25071347 76.3053544 40.24609375 78.76171875 C40.24806259 79.49975235 40.25003143 80.23778595 40.25205994 80.9981842 C40.2286779 86.09733171 40.2286779 86.09733171 39.11328125 88.328125 C21.95328125 88.328125 4.79328125 88.328125 -12.88671875 88.328125 C-13.82821944 85.50362294 -14.0131854 83.77814657 -14.01611328 80.85449219 C-14.01926544 79.94793884 -14.0224176 79.0413855 -14.02566528 78.10736084 C-14.02364105 77.12318176 -14.02161682 76.13900269 -14.01953125 75.125 C-14.02048798 74.09618713 -14.0214447 73.06737427 -14.02243042 72.00738525 C-14.02311233 69.81498148 -14.02125729 67.6225757 -14.01708984 65.43017578 C-14.01185063 62.16043199 -14.01697655 58.89083261 -14.0234375 55.62109375 C-14.02806244 45.02274979 -13.90721676 34.43500653 -13.50390625 23.84375 C-13.47354279 22.93010681 -13.44317932 22.01646362 -13.41189575 21.07513428 C-12.74228349 5.74499393 -12.74228349 5.74499393 -9.5348053 1.56726074 C-6.72058882 -0.54864527 -3.37972035 -0.05587106 0 0 Z " transform="translate(204.88671875,35.671875)" />
    <path d="M0 0 C19.59165525 9.19114691 31.35702046 28.46561939 41 47 C41.3398291 47.64404785 41.6796582 48.2880957 42.02978516 48.95166016 C46.15257113 56.79698077 49.88169771 64.79284616 53.375 72.9375 C53.70894775 73.70618408 54.04289551 74.47486816 54.38696289 75.2668457 C56.28318001 79.78371587 57.62007754 84.15547292 58.53125 88.97143555 C59.01920208 91.08309902 59.73549357 92.901665 60.625 94.875 C62 98 62 98 62 101 C58.23757407 99.54759293 54.63137758 97.87713968 51 96.125 C36.30721322 89.43017143 22.49525676 87.78932762 6.49926758 86.32543945 C4 86 4 86 2 85 C1.99191315 84.33110748 1.98382629 83.66221497 1.97549438 82.97305298 C1.89615109 76.53534905 1.80850003 70.09781137 1.71247292 63.66033363 C1.66342235 60.35414784 1.61803526 57.04801493 1.578125 53.74169922 C1.3944528 38.69779842 0.95441396 23.76354821 -0.40829468 8.77456665 C-0.49865997 7.76276337 -0.58902527 6.75096008 -0.68212891 5.70849609 C-0.76717682 4.81939545 -0.85222473 3.9302948 -0.93984985 3.01425171 C-0.9596994 2.34954865 -0.97954895 1.68484558 -1 1 C-0.67 0.67 -0.34 0.34 0 0 Z " transform="translate(245,38)" />
    <path d="M0 0 C0.02781263 1.77073747 0.04674879 3.54161417 0.0625 5.3125 C0.07410156 6.29863281 0.08570313 7.28476562 0.09765625 8.30078125 C0.02136769 11.1905918 -0.18520125 13.94853125 -0.48632812 16.81640625 C-1.12953802 23.75265038 -1.22686165 30.67460569 -1.31640625 37.63671875 C-1.33703464 39.01105794 -1.35803238 40.38539163 -1.37937927 41.75971985 C-1.43399356 45.33848554 -1.48366438 48.91730254 -1.53222656 52.49615479 C-1.58289091 56.16349738 -1.63833991 59.83076749 -1.69335938 63.49804688 C-1.80019654 70.66530282 -1.90179963 77.83261995 -2 85 C-2.5508728 85.0484758 -3.10174561 85.0969516 -3.66931152 85.14689636 C-18.22254276 86.3725915 -18.22254276 86.3725915 -32.5 89.3125 C-33.32040771 89.52688721 -34.14081543 89.74127441 -34.98608398 89.9621582 C-42.70001813 92.04924351 -50.30901497 94.53934332 -57 99 C-57.99 99 -58.98 99 -60 99 C-54.6447171 65.26171773 -33.65087098 23.93544297 -6 3.4375 C-1.1754386 0 -1.1754386 0 0 0 Z " transform="translate(191,39)" />
    <path d="M0 0 C5.67884322 0.53002537 10.47288725 1.61325496 15.75 3.75 C16.39582031 3.98976562 17.04164063 4.22953125 17.70703125 4.4765625 C22.10676915 6.22923017 24.18987735 8.27848622 27 12 C27.99 12 28.98 12 30 12 C32.59449476 14.69851931 33.44987369 16.72188751 33.5 20.4375 C33.09456023 31.92496011 27.09532678 41.37228867 20 50 C18.98099609 51.26457031 18.98099609 51.26457031 17.94140625 52.5546875 C3.01199244 70.14126303 -17.62862562 80.41297135 -40 85 C-41.99906142 85.06126522 -44.00169704 85.08237279 -46 85 C-46 84.34 -46 83.68 -46 83 C-44.6015625 81.80859375 -44.6015625 81.80859375 -42.625 80.4375 C-22.25544603 65.48309154 -8.17779042 42.77497798 -4.32421875 17.6484375 C-4.17597656 16.60945313 -4.02773438 15.57046875 -3.875 14.5 C-3.56658567 12.38443059 -3.25177471 10.26978096 -2.9296875 8.15625 C-2.79804199 7.23650391 -2.66639648 6.31675781 -2.53076172 5.36914062 C-2 3 -2 3 0 0 Z " transform="translate(275,129)" />
    <path d="M0 0 C0.53076172 2.09448242 0.53076172 2.09448242 0.9296875 4.85546875 C1.08300537 5.86367676 1.23632324 6.87188477 1.39428711 7.91064453 C1.55292236 8.99200684 1.71155762 10.07336914 1.875 11.1875 C3.32204433 20.40605943 5.05493984 29.13185242 8 38 C8.34546875 39.15371094 8.6909375 40.30742187 9.046875 41.49609375 C14.77264741 59.39893693 27.37879684 72.6856484 42 84 C33.54161998 87.1823608 20.46181257 80.22709878 12.64501953 76.70458984 C2.73579502 72.09491123 -5.11123267 66.58949695 -13 59 C-13.92167969 58.14148438 -14.84335938 57.28296875 -15.79296875 56.3984375 C-26.59623611 46.05710295 -34.88045951 35.40141347 -35.4375 20.125 C-35.49609375 16.8203125 -35.49609375 16.8203125 -35 14 C-32.94592444 11.96701351 -31.91892877 11 -29 11 C-28.27425781 10.23042969 -27.54851562 9.46085938 -26.80078125 8.66796875 C-23.66758643 5.68334942 -21.26882205 4.66694095 -17.1875 3.3125 C-15.95902344 2.90386719 -14.73054688 2.49523437 -13.46484375 2.07421875 C-2.59290188 -1.29645094 -2.59290188 -1.29645094 0 0 Z " transform="translate(165,129)" />
    <path d="M0 0 C18.15 0 36.3 0 55 0 C37.06669535 17.93330465 37.06669535 17.93330465 27.125 18.75 C16.39679236 18.11990434 7.2031804 8.27284366 0 1 C0 0.67 0 0.34 0 0 Z " transform="translate(191,196)" />
  </g>

  <!-- ZONA: Elástico Inferior -->
  <g id="zona-elastico-inf" fill="#2C2C2C">
    <path d="M0 0 C4.91073768 0.61384221 9.64436534 1.24828607 14.484375 2.15625 C15.66773438 2.37410156 16.85109375 2.59195312 18.0703125 2.81640625 C20.50833538 3.26932982 22.94584519 3.72502463 25.3828125 4.18359375 C26.57132813 4.40144531 27.75984375 4.61929687 28.984375 4.84375 C30.04366211 5.04162109 31.10294922 5.23949219 32.19433594 5.44335938 C44.75529082 7.28060451 57.32719069 7.17999632 69.9921875 7.203125 C71.57439779 7.20736607 71.57439779 7.20736607 73.18857193 7.21169281 C78.78636162 7.22662847 84.38412598 7.23588972 89.98193359 7.24023438 C94.54516708 7.24459431 99.10820887 7.25839712 103.67138672 7.28125 C148.64376378 7.71455693 148.64376378 7.71455693 193 1 C194.65610774 0.61764411 196.3217858 0.26923222 198 0 C199 1 199 1 199.11352539 3.95922852 C199.10828857 5.25272217 199.10305176 6.54621582 199.09765625 7.87890625 C199.09553383 8.90889992 199.09553383 8.90889992 199.09336853 9.95970154 C199.08775479 12.16067801 199.07520007 14.36155409 199.0625 16.5625 C199.05748676 18.05143083 199.05292355 19.54036324 199.04882812 21.02929688 C199.03778093 24.68623075 199.02050713 28.34310558 199 32 C139.4468602 49.46064467 59.78913482 46.57046143 0 32 C0 21.44 0 10.88 0 0 Z " transform="translate(120,476)" />
  </g>

  <!-- ZONA: Puño Izquierdo -->
  <g id="zona-puño-izq" fill="#2C2C2C">
    <path d="M0 0 C0.90202148 0.13631836 0.90202148 0.13631836 1.82226562 0.27539062 C19.50985129 2.88240438 37.21397112 4.54086127 55 2 C55 8.93 55 15.86 55 23 C40.4909094 28.80363624 19.60644739 27.6836778 4.8125 22.8125 C2 21 2 21 0.5625 18.1875 C-0.62901755 12.26834828 -0.14984739 6.00222031 0 0 Z " transform="translate(45,494)" />
  </g>

  <!-- ZONA: Puño Derecho -->
  <g id="zona-puño-der" fill="#2C2C2C">
    <path d="M0 0 C0 6.93 0 13.86 0 21 C-5.82796811 23.18548804 -10.31509469 24.60352084 -16.3125 25.1875 C-17.46395508 25.30484497 -17.46395508 25.30484497 -18.63867188 25.42456055 C-24.42055591 25.96119897 -30.19439335 26.23654529 -36 26.3125 C-36.75192627 26.33014404 -37.50385254 26.34778809 -38.27856445 26.3659668 C-44.6720084 26.35823761 -48.40642644 24.97807207 -55 23 C-55 16.07 -55 9.14 -55 2 C-52.03 2.495 -52.03 2.495 -49 3 C-44.23144833 3.24274926 -39.46171851 3.23827837 -34.6875 3.25 C-34.01891968 3.25233643 -33.35033936 3.25467285 -32.66149902 3.25708008 C-21.62253924 3.27165821 -10.74177337 0 0 0 Z " transform="translate(394,494)" />
  </g>

  <!-- CAPA DE SOMBRAS Y PLIEGUES 3D (No coloreable) -->
  <g opacity="0.30" style="mix-blend-mode: multiply;">
    <path d="M0 0 C2.91943329 4.37914994 3.98588254 9.1583949 5.4375 14.1875 C5.90772583 15.81365234 5.90772583 15.81365234 6.38745117 17.47265625 C8.78915212 25.94052202 10.6366633 34.30046322 12 43 C12.27240257 44.55278908 12.27240257 44.55278908 12.55030823 46.13694763 C14.67133133 59.98650975 14.2040428 73.96320735 14.10399318 87.93302083 C14.07997304 91.7138162 14.0702786 95.49464458 14.05970764 99.27549744 C14.02591198 110.48981071 13.97339592 121.70402555 13.9105835 132.91821289 C13.86174691 141.64250291 13.81980923 150.36670109 13.79907519 159.09110922 C13.78957698 162.83252796 13.77427162 166.57370715 13.74394035 170.31501961 C12.58958948 210.19602343 12.58958948 210.19602343 26 247 C29.12133744 248.13478935 29.12133744 248.13478935 32 248 C33.20162766 244.39511703 33.04351882 241.17309299 32.96484375 237.4296875 C32.68895172 207.18382955 32.68895172 207.18382955 42.72949219 193.8828125 C53.40920514 178.05615103 56.41375921 153.10368551 59 135 C101.24 135 143.48 135 187 135 C188.65 144.9 190.3 154.8 192 165 C196.90293834 180.27727164 202.08728502 194.63092752 211 208 C211.13525391 210.4519043 211.13525391 210.4519043 210.9765625 213.32421875 C210.925 214.35224609 210.8734375 215.38027344 210.8203125 216.43945312 C210.75585938 217.51130859 210.69140625 218.58316406 210.625 219.6875 C210.56828125 220.77095703 210.5115625 221.85441406 210.453125 222.97070312 C210.31160446 225.64780007 210.16018849 228.32396576 210 231 C209.67 231 209.34 231 209 231 C208.67 223.74 208.34 216.48 208 209 C207.34 208.67 206.68 208.34 206 208 C205.11791992 206.42456055 205.11791992 206.42456055 204.23046875 204.38671875 C203.90151611 203.6397876 203.57256348 202.89285645 203.23364258 202.12329102 C202.715802 200.91757446 202.715802 200.91757446 202.1875 199.6875 C201.65129028 198.45181274 201.65129028 198.45181274 201.10424805 197.19116211 C200.38939277 195.5403906 199.67718939 193.88846791 198.96777344 192.23535156 C198.17991868 190.41557402 197.36362003 188.60813152 196.5390625 186.8046875 C189.87629005 171.90893508 185 153.33011804 185 137 C126.59 137.495 126.59 137.495 67 138 C67 138.66 67 139.32 67 140 C66.01 140 65.02 140 64 140 C64 139.01 64 138.02 64 137 C63.34 137 62.68 137 62 137 C61.87471924 137.70382812 61.74943848 138.40765625 61.62036133 139.1328125 C57.66856463 161.0979918 52.53685493 181.97997564 42.078125 201.8515625 C40.92996374 204.06232163 40.92996374 204.06232163 39.921875 206.7109375 C39 209 39 209 38 210 C37.83970312 212.95529504 37.74042672 215.88982457 37.68359375 218.84765625 C37.66281265 219.7340831 37.64203156 220.62050995 37.62062073 221.53379822 C37.555026 224.376617 37.49619448 227.21953117 37.4375 230.0625 C37.3943242 231.98503606 37.35071022 233.90756234 37.30664062 235.83007812 C37.19933457 240.55328668 37.09809549 245.27659153 37 250 C41.90811191 250.58337186 46.81688917 251.16061037 51.72631836 251.73278809 C53.70682075 251.96554443 55.68649706 252.20530878 57.66601562 252.44628906 C83.47586095 255.4840332 109.29218122 255.24417794 135.23339844 255.06494141 C136.72279856 255.05568768 138.21219879 255.04645076 139.70159912 255.03723145 C142.48122329 255.01978613 145.26059814 254.99433486 148.0401001 254.96325684 C155.75381046 254.90457317 163.32643384 255.19877234 171 256 C171 256.33 171 256.66 171 257 C158.27250797 257.04660614 145.54503668 257.08201157 132.81747627 257.10362434 C126.90579308 257.11400412 120.99416882 257.12805559 115.08251953 257.15087891 C109.36367092 257.17281644 103.64487854 257.18461212 97.92599106 257.18975449 C95.75822949 257.19341309 93.59047054 257.20055578 91.42273331 257.21146011 C74.43845358 257.29339722 58.08416924 256.1969711 41.375 253 C40.47394531 252.835 39.57289063 252.67 38.64453125 252.5 C33.35256451 251.51401493 28.24385625 250.31096406 23 249 C23 259.56 23 270.12 23 281 C26.3 281.33 29.6 281.66 33 282 C36.94140625 282.96875 36.94140625 282.96875 38.89892578 283.49609375 C75.80365128 292.34705278 117.35464079 289.51546025 155 290 C155 290.33 155 290.66 155 291 C131.79437435 292.20732188 108.59002146 292.21694772 85.35980225 292.01959229 C83.31101823 292.00258223 81.26219904 291.98991605 79.21337891 291.97802734 C59.50551345 291.79850533 38.73538171 289.2568645 20 283 C19.99589111 282.01418945 19.99178223 281.02837891 19.98754883 280.01269531 C21.7426501 251.38548518 21.7426501 251.38548518 13 226 C12.92483154 226.74757568 12.84966309 227.49515137 12.7722168 228.26538086 C11.31464894 242.70334519 9.81217762 257.12633576 8.00268555 271.52514648 C7.88578369 272.46688721 7.76888184 273.40862793 7.6484375 274.37890625 C7.53209961 275.29172363 7.41576172 276.20454102 7.29589844 277.14501953 C7.0848086 279.18172299 6.95057606 281.22699513 6.86816406 283.27294922 C6.82143555 284.34689941 6.77470703 285.42084961 6.7265625 286.52734375 C6.69296631 287.99095337 6.69296631 287.99095337 6.65869141 289.48413086 C6 292 6 292 3.67675781 293.79980469 C-9.28015866 299.60938161 -32.51598075 297.55643385 -46 294 C-49.98697604 292.46423884 -53.01526332 290.81379263 -55.24023438 287.04101562 C-57.05137606 282.17560931 -56.99923399 276.88350112 -57.25 271.75 C-57.3265298 270.41592676 -57.40319348 269.0818612 -57.47998047 267.74780273 C-58.46308095 249.19066851 -58.1752733 230.57492529 -58 212 C-57.67 212 -57.34 212 -57 212 C-56.67 217.61 -56.34 223.22 -56 229 C-55.67 229 -55.34 229 -55 229 C-54.98541748 229.81678223 -54.97083496 230.63356445 -54.95581055 231.47509766 C-54.88113077 235.1921976 -54.78453388 238.90841919 -54.6875 242.625 C-54.65366211 244.55279297 -54.65366211 244.55279297 -54.61914062 246.51953125 C-54.58369141 247.76347656 -54.54824219 249.00742187 -54.51171875 250.2890625 C-54.48553467 251.43068848 -54.45935059 252.57231445 -54.43237305 253.74853516 C-53.94446967 257.41759056 -52.93497755 259.8559825 -51 263 C-41.08629979 268.78299179 -28.798084 268.31551696 -17.6875 268.25 C-16.34309524 268.25714332 -14.99869384 268.26495241 -13.65429688 268.2734375 C-12.36974609 268.27085937 -11.08519531 268.26828125 -9.76171875 268.265625 C-8.0286145 268.26224121 -8.0286145 268.26224121 -6.26049805 268.25878906 C-2.88408975 267.99080009 -0.15424357 267.20349466 3 266 C4.80078019 258.07656716 6.21650874 250.20916886 7 242.12109375 C7.08341644 241.2629155 7.16683289 240.40473724 7.2527771 239.52055359 C11.08596923 198.4451977 11.33753794 157.08852387 11.42754364 115.87069321 C11.43739807 112.41078636 11.45459378 108.95098646 11.47369385 105.49111938 C11.63154425 74.14401658 11.1611393 44.18093014 2.26953125 13.85546875 C0.96660132 9.24119456 0.40067178 4.77426976 0 0 Z " fill="#181818" transform="translate(97,227)" />
    <path d="M0 0 C0.99 0.495 0.99 0.495 2 1 C0.88240254 4.35279237 0.35085209 4.7062547 -2.4375 6.625 C-16.93990266 17.19103623 -26.28007841 30.58839626 -35 46 C-35.37656738 46.66128906 -35.75313477 47.32257813 -36.14111328 48.00390625 C-45.80466925 65.1285688 -52.38605997 83.20180687 -58 102 C-56.02 101.67 -54.04 101.34 -52 101 C-52.1875 102.875 -52.1875 102.875 -53 105 C-55.55078125 106.1328125 -55.55078125 106.1328125 -58 107 C-58.86026608 122.0307602 -54.92977713 131.7344665 -45 143 C-30.18528928 159.34331371 -13.81993859 169.03116401 7 176 C7 176.33 7 176.66 7 177 C-7.68205685 176.26589716 -21.17798898 168.21285398 -32.61328125 159.41796875 C-35.51632529 157.693247 -37.63775655 157.2977965 -41 157 C-43.75139534 157.72653286 -43.75139534 157.72653286 -46.4140625 159.0625 C-47.41679199 159.5260791 -48.41952148 159.9896582 -49.45263672 160.46728516 C-50.4995166 160.97308105 -51.54639648 161.47887695 -52.625 162 C-53.70152832 162.50966309 -54.77805664 163.01932617 -55.88720703 163.54443359 C-66.61306632 168.67574709 -76.15970006 173.70558072 -84.84375 181.984375 C-87 184 -87 184 -89.234375 185.50390625 C-91.16083785 186.86008842 -91.16083785 186.86008842 -91.609375 189.04296875 C-91.65578125 189.75066406 -91.7021875 190.45835937 -91.75 191.1875 C-91.8325 192.445625 -91.915 193.70375 -92 195 C-92.33 194.34 -92.66 193.68 -93 193 C-97.38006281 196.93818037 -99.99729916 201.03595736 -102.6875 206.25 C-103.11321289 207.06919922 -103.53892578 207.88839844 -103.97753906 208.73242188 C-116.22380585 232.90150306 -123.87877905 258.48134747 -129.54016113 284.86965942 C-129.87582109 286.42470419 -130.21567328 287.97884576 -130.5579834 289.53244019 C-133.92579508 304.84488067 -136.52899001 320.15265801 -138.625 335.6875 C-138.92721922 337.89022179 -139.22946561 340.09293984 -139.53173828 342.2956543 C-142.43950536 363.6574695 -145.05929453 384.9824582 -145.7890625 406.546875 C-145.90143643 409.51721731 -146.13608006 412.4353578 -146.48828125 415.38671875 C-147.10925253 420.60128529 -147.33987384 425.81801171 -147.5625 431.0625 C-147.60568359 432.02349609 -147.64886719 432.98449219 -147.69335938 433.97460938 C-147.79821132 436.31630277 -147.90037788 438.65807929 -148 441 C-148.33 441 -148.66 441 -149 441 C-149.45569185 411.26481493 -149.42520534 382.02429581 -145.34503174 352.53796387 C-144.97716466 349.8320292 -144.62902171 347.12406336 -144.28466797 344.41503906 C-137.59931746 292.01948615 -128.51203471 232.96971069 -97 189 C-96.5884668 188.42217773 -96.17693359 187.84435547 -95.75292969 187.24902344 C-83.2104626 170.0820681 -64.58742023 161.21297789 -45 154 C-44.34 154 -43.68 154 -43 154 C-44.75372698 150.69886686 -46.80293093 148.04970698 -49.3125 145.3125 C-58.6564355 134.74636196 -63.85482308 122.39223075 -63.3125 108.15625 C-62.78965827 102.87554852 -61.58970118 98.05709288 -60 93 C-59.80083984 92.33774414 -59.60167969 91.67548828 -59.39648438 90.99316406 C-49.75598022 59.35581635 -31.63393973 18.53415913 -2.1015625 0.93359375 C-1.06128906 0.47146484 -1.06128906 0.47146484 0 0 Z " fill="#121212" transform="translate(189,36)" />
    <path d="M0 0 C0.598125 0.226875 1.19625 0.45375 1.8125 0.6875 C1.338125 1.5125 0.86375 2.3375 0.375 3.1875 C-2.64068154 9.94262664 -2.43757314 17.6611999 -2.74609375 24.97265625 C-2.78834579 25.96395035 -2.83059784 26.95524445 -2.87413025 27.97657776 C-3.35234615 40.35762998 -3.29501573 52.73691008 -3.25 65.125 C-3.229375 73.230625 -3.20875 81.33625 -3.1875 89.6875 C13.9725 89.6875 31.1325 89.6875 48.8125 89.6875 C49.1425 74.5075 49.4725 59.3275 49.8125 43.6875 C50.4725 43.6875 51.1325 43.6875 51.8125 43.6875 C51.8125 58.5375 51.8125 73.3875 51.8125 88.6875 C61.13044274 89.59290674 61.13044274 89.59290674 70.44995117 90.48193359 C71.61502197 90.59875488 72.78009277 90.71557617 73.98046875 90.8359375 C75.16922607 90.95114746 76.3579834 91.06635742 77.58276367 91.18505859 C80.61493794 91.6567658 83.03243943 92.41779385 85.8125 93.6875 C85.8125 94.0175 85.8125 94.3475 85.8125 94.6875 C82.8425 95.1825 82.8425 95.1825 79.8125 95.6875 C78.81432799 99.91053544 77.90009035 104.06712325 77.29296875 108.3671875 C74.9288161 125.01895772 68.66108683 145.94586834 55.8125 157.6875 C56.47185276 153.74093926 58.4217271 150.87669864 60.5 147.5 C70.2023159 130.88451271 73.2574076 112.35649808 76.8125 93.6875 C60.96636782 91.83355849 45.32041367 91.36816361 29.375 91.4375 C28.19726013 91.43927246 27.01952026 91.44104492 25.80609131 91.44287109 C7.73926945 91.47476581 -10.19656104 91.94629201 -28.1875 93.6875 C-25.17727329 113.8380632 -21.78470202 133.46999523 -12.1875 151.6875 C-11.60162109 152.90566406 -11.60162109 152.90566406 -11.00390625 154.1484375 C-9.00075343 157.20620971 -6.94855072 159.16236597 -3.37646484 160.22753906 C14.02606471 163.61261043 33.14262561 161.88225063 50.8125 161.6875 C43.65786434 168.85689966 36.96503233 175.17895871 27.8125 179.6875 C27.1525 180.0175 26.4925 180.3475 25.8125 180.6875 C28.1225 181.0175 30.4325 181.3475 32.8125 181.6875 C32.8125 182.0175 32.8125 182.3475 32.8125 182.6875 C21.0547322 183.05493024 10.28772388 182.31398176 -1.1875 179.6875 C-0.5275 179.0275 0.1325 178.3675 0.8125 177.6875 C3.1953125 177.7109375 3.1953125 177.7109375 5.9375 178.0625 C6.84757812 178.17335937 7.75765625 178.28421875 8.6953125 178.3984375 C9.39398438 178.49382812 10.09265625 178.58921875 10.8125 178.6875 C9.86890625 177.96046875 9.86890625 177.96046875 8.90625 177.21875 C-3.41783796 167.56735582 -14.10320953 156.36476943 -20.1875 141.6875 C-20.51105469 140.91792969 -20.83460938 140.14835938 -21.16796875 139.35546875 C-26.75955033 125.06587139 -28.99888633 109.79225043 -31.1875 94.6875 C-39.08387289 96.66685747 -46.76446845 98.6501051 -54.234375 101.953125 C-56.1875 102.6875 -56.1875 102.6875 -59.1875 102.6875 C-51.5111587 93.67954848 -31.77344394 91.18245832 -20.46308899 89.84625244 C-17.61102939 89.64728355 -14.78135326 89.6509164 -11.92260742 89.66308594 C-10.30934822 89.66837311 -10.30934822 89.66837311 -8.66349792 89.67376709 C-7.84641861 89.67829895 -7.02933929 89.68283081 -6.1875 89.6875 C-6.18972061 88.935186 -6.19194122 88.18287201 -6.19422913 87.40776062 C-6.2143718 80.2738579 -6.22954482 73.13996921 -6.23931217 66.00604534 C-6.24450266 62.33954836 -6.25152956 58.67307512 -6.26293945 55.0065918 C-6.27390599 51.45987023 -6.27980561 47.91317133 -6.28237724 44.3664341 C-6.28508965 42.37316261 -6.29287919 40.37990007 -6.30079651 38.38664246 C-6.30119367 31.86408226 -6.11085538 25.45911603 -5.40205383 18.97285461 C-4.98511537 14.53176755 -5.27787844 10.10802609 -5.4453125 5.65625 C-5.1875 2.6875 -5.1875 2.6875 -3.81640625 0.76171875 C-2.1875 -0.3125 -2.1875 -0.3125 0 0 Z " fill="#101010" transform="translate(195.1875,34.3125)" />
    <path d="M0 0 C0.33 0 0.66 0 1 0 C1.01839432 0.84491501 1.03678864 1.68983002 1.05574036 2.56034851 C1.77562283 49.51498787 1.77562283 49.51498787 4.5 96.375 C4.55966949 97.07756927 4.61933899 97.78013855 4.68081665 98.5039978 C5.08642004 113.73595902 5.08642004 113.73595902 11 127 C18.91941568 129.89144134 28.64499453 129.57153818 37 130 C37 130.33 37 130.66 37 131 C33.4375173 131.02913821 29.87506546 131.04684529 26.3125 131.0625 C25.30509766 131.07087891 24.29769531 131.07925781 23.25976562 131.08789062 C22.28330078 131.09111328 21.30683594 131.09433594 20.30078125 131.09765625 C18.95753784 131.10551147 18.95753784 131.10551147 17.5871582 131.11352539 C15 131 15 131 10 130 C9.67 136.6 9.34 143.2 9 150 C25.25831788 154.26447682 42.5324348 151.83519135 59 150 C58 153 58 153 55.8125 154.125 C48.44073369 156.41843841 41.02074012 156.21797596 33.375 156.25 C31.56322266 156.2809375 31.56322266 156.2809375 29.71484375 156.3125 C21.77411557 156.34669043 14.55713571 155.53957038 7 153 C5.28253478 151.28253478 5.68768684 148.95131768 5.53515625 146.6015625 C5.45716797 145.48136719 5.37917969 144.36117187 5.29882812 143.20703125 C5.14385897 140.85815985 4.99016822 138.50920368 4.83789062 136.16015625 C4.40071452 129.9117368 3.68105743 123.89470976 2.47485352 117.75097656 C1.60712106 112.72392807 1.30177885 107.6465657 0.9375 102.5625 C0.78299244 100.45940953 0.6255624 98.35653119 0.46484375 96.25390625 C0.399021 95.33939697 0.33319824 94.4248877 0.26538086 93.48266602 C0.02482588 91.2322487 -0.38729314 89.17480759 -1 87 C-1.46684148 88.43475947 -1.92279644 89.87305996 -2.375 91.3125 C-2.75785156 92.51326172 -2.75785156 92.51326172 -3.1484375 93.73828125 C-5.97360654 104.55945624 -6.4082404 115.07066764 -6.625 126.1875 C-6.66327103 127.82358641 -6.70232771 129.45965465 -6.7421875 131.09570312 C-6.837175 135.06365081 -6.92155856 139.03169216 -7 143 C-39.21754791 152.42938891 -71.68823512 152.33716361 -105 152 C-105 151.67 -105 151.34 -105 151 C-99.06 150.67 -93.12 150.34 -87 150 C-87 149.67 -87 149.34 -87 149 C-86.01644531 148.96559814 -85.03289062 148.93119629 -84.01953125 148.89575195 C-62.39347248 148.10444983 -41.32529575 146.36422313 -20.015625 142.54077148 C-17.01471425 142.00263861 -14.00729691 141.50121615 -11 141 C-11.33 130.77 -11.66 120.54 -12 110 C-16.95 110.99 -16.95 110.99 -22 112 C-39.48103316 115.17698777 -56.23525065 116.15412556 -74 116 C-74 115.67 -74 115.34 -74 115 C-73.09870361 114.91959473 -72.19740723 114.83918945 -71.26879883 114.75634766 C-67.85963354 114.45021496 -64.4508468 114.14035267 -61.04223633 113.828125 C-59.57915141 113.69484058 -58.11593803 113.56295741 -56.65258789 113.43261719 C-48.32206599 112.68958607 -40.08654758 111.81156709 -31.83862305 110.38037109 C-29 110 -29 110 -23 110 C-23 98.78 -23 87.56 -23 76 C-22.67 76 -22.34 76 -22 76 C-22 86.89 -22 97.78 -22 109 C-13.44939325 108.10259053 -13.44939325 108.10259053 -11.1328125 104.6015625 C-10.80023438 103.61929688 -10.46765625 102.63703125 -10.125 101.625 C-9.74988281 100.54605469 -9.37476563 99.46710938 -8.98828125 98.35546875 C-4.18195773 82.03676557 -1.94325011 66.11173841 -1.71875 49.12109375 C-1.70034058 48.02837662 -1.68193115 46.93565948 -1.66296387 45.80982971 C-1.58517721 41.18654033 -1.51681326 36.56312394 -1.44775391 31.93969727 C-1.39562152 28.54176594 -1.338545 25.14394133 -1.28125 21.74609375 C-1.26767456 20.71665146 -1.25409912 19.68720917 -1.2401123 18.62657166 C-1.13390507 12.37010153 -0.73148148 6.21486716 0 0 Z " fill="#101010" transform="translate(330,367)" />
    <path d="M0 0 C42.24 0 84.48 0 128 0 C129.65 9.9 131.3 19.8 133 30 C137.90293834 45.27727164 143.08728502 59.63092752 152 73 C152.13525391 75.4519043 152.13525391 75.4519043 151.9765625 78.32421875 C151.925 79.35224609 151.8734375 80.38027344 151.8203125 81.43945312 C151.75585938 82.51130859 151.69140625 83.58316406 151.625 84.6875 C151.56828125 85.77095703 151.5115625 86.85441406 151.453125 87.97070312 C151.31160446 90.64780007 151.16018849 93.32396576 151 96 C150.67 96 150.34 96 150 96 C149.67 88.74 149.34 81.48 149 74 C148.34 73.67 147.68 73.34 147 73 C146.11791992 71.42456055 146.11791992 71.42456055 145.23046875 69.38671875 C144.90151611 68.6397876 144.57256348 67.89285645 144.23364258 67.12329102 C143.88841553 66.31947998 143.54318848 65.51566895 143.1875 64.6875 C142.83002686 63.8637085 142.47255371 63.03991699 142.10424805 62.19116211 C141.38939277 60.5403906 140.67718939 58.88846791 139.96777344 57.23535156 C139.17991868 55.41557402 138.36362003 53.60813152 137.5390625 51.8046875 C130.87629005 36.90893508 126 18.33011804 126 2 C87.06 2.33 48.12 2.66 8 3 C8 3.66 8 4.32 8 5 C7.01 5 6.02 5 5 5 C5 4.01 5 3.02 5 2 C4.34 2 3.68 2 3 2 C2.87471924 2.70382812 2.74943848 3.40765625 2.62036133 4.1328125 C-1.33143537 26.0979918 -6.46314507 46.97997564 -16.921875 66.8515625 C-18.07003626 69.06232163 -18.07003626 69.06232163 -19.078125 71.7109375 C-20 74 -20 74 -21 75 C-21.16029688 77.95529504 -21.25957328 80.88982457 -21.31640625 83.84765625 C-21.33718735 84.7340831 -21.35796844 85.62050995 -21.37937927 86.53379822 C-21.444974 89.376617 -21.50380552 92.21953117 -21.5625 95.0625 C-21.6056758 96.98503606 -21.64928978 98.90756234 -21.69335938 100.83007812 C-21.80066543 105.55328668 -21.90190451 110.27659153 -22 115 C-17.09188809 115.58337186 -12.18311083 116.16061037 -7.27368164 116.73278809 C-5.29317925 116.96554443 -3.31350294 117.20530878 -1.33398438 117.44628906 C24.47586095 120.4840332 50.29218122 120.24417794 76.23339844 120.06494141 C77.72279856 120.05568768 79.21219879 120.04645076 80.70159912 120.03723145 C83.48122329 120.01978613 86.26059814 119.99433486 89.0401001 119.96325684 C96.75381046 119.90457317 104.32643384 120.19877234 112 121 C112 121.33 112 121.66 112 122 C99.27250797 122.04660614 86.54503668 122.08201157 73.81747627 122.10362434 C67.90579308 122.11400412 61.99416882 122.12805559 56.08251953 122.15087891 C50.36367092 122.17281644 44.64487854 122.18461212 38.92599106 122.18975449 C36.75822949 122.19341309 34.59047054 122.20055578 32.42273331 122.21146011 C15.31203346 122.29400711 -1.15272909 121.12529083 -18 118 C-18.95132813 117.835 -19.90265625 117.67 -20.8828125 117.5 C-21.78773438 117.335 -22.69265625 117.17 -23.625 117 C-24.42164063 116.855625 -25.21828125 116.71125 -26.0390625 116.5625 C-28 116 -28 116 -30 114 C-28.515 113.505 -28.515 113.505 -27 113 C-25.79837234 109.39511703 -25.95648118 106.17309299 -26.03515625 102.4296875 C-26.31104828 72.18382955 -26.31104828 72.18382955 -16.27050781 58.8828125 C-5.59079486 43.05615103 -2.58624079 18.10368551 0 0 Z " fill="#2A2A2A" transform="translate(156,362)" />
    <path d="M0 0 C-0.33 0.66 -0.66 1.32 -1 2 C-3.70599842 2.47597366 -6.33595404 2.84093629 -9.0625 3.125 C-9.82111328 3.21136719 -10.57972656 3.29773438 -11.36132812 3.38671875 C-13.23996986 3.59939517 -15.11988636 3.80075459 -17 4 C-12.84303503 40.33622362 -12.84303503 40.33622362 6 70 C9.04253869 70.89628926 11.83914799 71.11467944 15 71 C15 71.33 15 71.66 15 72 C11.535 72.495 11.535 72.495 8 73 C20.55076857 85.34286031 20.55076857 85.34286031 37 90 C37 90.33 37 90.66 37 91 C39.31 91.33 41.62 91.66 44 92 C44 92.33 44 92.66 44 93 C32.2422322 93.36743024 21.47522388 92.62648176 10 90 C10.66 89.34 11.32 88.68 12 88 C14.3828125 88.0234375 14.3828125 88.0234375 17.125 88.375 C18.03507812 88.48585938 18.94515625 88.59671875 19.8828125 88.7109375 C20.58148438 88.80632812 21.28015625 88.90171875 22 89 C21.3709375 88.5153125 20.741875 88.030625 20.09375 87.53125 C7.76966204 77.87985582 -2.91570953 66.67726943 -9 52 C-9.48533203 50.84564453 -9.48533203 50.84564453 -9.98046875 49.66796875 C-15.57205033 35.37837139 -17.81138633 20.10475043 -20 5 C-27.89637289 6.97935747 -35.57696845 8.9626051 -43.046875 12.265625 C-45 13 -45 13 -48 13 C-38.83651395 2.24692963 -13.31066965 -0.27730562 0 0 Z " fill="#2A2A2A" transform="translate(184,124)" />
    <path d="M0 0 C2.91943329 4.37914994 3.98588254 9.1583949 5.4375 14.1875 C5.75098389 15.27160156 6.06446777 16.35570312 6.38745117 17.47265625 C11.88278682 36.84799303 14.32916013 56.24746928 14.23046875 76.33984375 C14.2296089 77.97892739 14.22953278 79.6180116 14.23017883 81.25709534 C14.22904052 85.59291514 14.21482761 89.92859321 14.19723511 94.26437378 C14.18745976 96.94854975 14.18165413 99.63270469 14.17724609 102.31689453 C14.13019055 130.88598592 13.8120132 159.44132312 13 188 C12.67 188 12.34 188 12 188 C11.18188288 174.06673147 10.89514608 160.2065614 11.01653099 146.25105476 C11.04385915 142.92684745 11.06129244 139.60271321 11.07600403 136.27842712 C11.11806139 126.84230884 11.16563113 117.40633163 11.24682617 107.97045898 C11.51523039 75.72223172 11.42296766 45.06288754 2.26953125 13.85546875 C0.96660132 9.24119456 0.40067178 4.77426976 0 0 Z " fill="#373737" transform="translate(97,227)" />
    <path d="M0 0 C0.33 0 0.66 0 1 0 C1.43504656 4.67675054 0.73391685 8.16745291 -0.75 12.625 C-10.18434003 41.96512839 -9.34802185 73.26928252 -9.60089111 103.73291016 C-9.64155532 108.40013195 -9.69235566 113.06724368 -9.7421875 117.734375 C-9.83779077 126.82283826 -9.92254772 135.91136513 -10 145 C-10.33 145 -10.66 145 -11 145 C-11.84535019 129.78177096 -12.15817132 114.60861276 -12.13037109 99.36767578 C-12.12499443 95.87137542 -12.13036451 92.37520285 -12.13671875 88.87890625 C-12.14349573 71.20112689 -12.11251123 53.49687706 -9.3125 36 C-9.14387451 34.918396 -8.97524902 33.83679199 -8.80151367 32.72241211 C-7.10612457 22.51630482 -4.30979624 12.78681289 -1 3 C-0.67 2.01 -0.34 1.02 0 0 Z " fill="#2C2C2C" transform="translate(340,232)" />
    <path d="M0 0 C0 0.66 0 1.32 0 2 C-1.76955744 2.46323493 -3.54074512 2.92024208 -5.3125 3.375 C-6.29863281 3.63023437 -7.28476562 3.88546875 -8.30078125 4.1484375 C-17.24067153 6.20640591 -26.10181167 7.46653596 -35.25 8.125 C-36.41499023 8.20991699 -37.57998047 8.29483398 -38.78027344 8.38232422 C-55.82713276 9.47608733 -72.9278981 9.17279455 -90 9 C-90 8.67 -90 8.34 -90 8 C-84.06 7.67 -78.12 7.34 -72 7 C-72 6.67 -72 6.34 -72 6 C-71.01644531 5.96559814 -70.03289062 5.93119629 -69.01953125 5.89575195 C-49.67760687 5.18830091 -30.70696146 3.95820372 -11.62890625 0.58911133 C-9.76298828 0.26076294 -9.76298828 0.26076294 -7.859375 -0.07421875 C-6.77108398 -0.27619873 -5.68279297 -0.47817871 -4.56152344 -0.6862793 C-2 -1 -2 -1 0 0 Z " fill="#161616" transform="translate(315,510)" />
    <path d="M0 0 C0.33 0 0.66 0 1 0 C1.13200324 7.34818023 0.93186991 14.66236511 0.5625 22 C0.52326416 22.8247583 0.48402832 23.6495166 0.44360352 24.49926758 C0.40162842 25.28325928 0.35965332 26.06725098 0.31640625 26.875 C0.27974854 27.57367188 0.24309082 28.27234375 0.20532227 28.9921875 C-0.01255304 31.12275414 -0.2795678 32.97863195 -1 35 C-4.20883825 36.95320589 -6.2205439 38 -10 38 C-9.67 36.68 -9.34 35.36 -9 34 C-6.525 33.505 -6.525 33.505 -4 33 C-4 26.07 -4 19.14 -4 12 C-5.98 12.66 -7.96 13.32 -10 14 C-21.86228838 17.02302729 -33.91875439 15.78343077 -46 15 C-46 14.67 -46 14.34 -46 14 C-44.09541016 13.92652344 -44.09541016 13.92652344 -42.15234375 13.8515625 C-22.23538795 14.03247984 -22.23538795 14.03247984 -4 8 C-2.32298404 5.44911729 -1.08891642 2.84741498 0 0 Z " fill="#1E1E1E" transform="translate(398,482)" />
    <path d="M0 0 C0 4.75766493 -3.21219117 6.97217066 -6.33984375 10.34765625 C-17.02356406 21 -17.02356406 21 -21 21 C-21 21.66 -21 22.32 -21 23 C-18.36 23 -15.72 23 -13 23 C-13 23.33 -13 23.66 -13 24 C-17.4378561 25.11165232 -21.76956386 25.11527763 -26.3125 25.0625 C-27.05306641 25.05798828 -27.79363281 25.05347656 -28.55664062 25.04882812 C-30.37112899 25.03712175 -32.18557534 25.01918898 -34 25 C-34 24.67 -34 24.34 -34 24 C-33.14341797 23.84917969 -33.14341797 23.84917969 -32.26953125 23.6953125 C-23.57638505 21.6775075 -17.68065335 16.59889702 -11 11 C-9.93605595 10.11289829 -8.87191331 9.22603474 -7.80761719 8.33935547 C-6.88110352 7.56736816 -5.95458984 6.79538086 -5 6 C-5.91998779 6.01047363 -6.83997559 6.02094727 -7.7878418 6.03173828 C-25.30763065 6.20451942 -42.58612459 6.24178626 -60 4 C-60 3.67 -60 3.34 -60 3 C-58.91671921 2.98786972 -58.91671921 2.98786972 -57.81155396 2.97549438 C-51.0131699 2.89762708 -44.21496486 2.81036046 -37.41684151 2.71247292 C-33.92165234 2.66247827 -30.42649386 2.61614887 -26.93115234 2.578125 C-22.91484293 2.53427456 -18.89890513 2.47461041 -14.8828125 2.4140625 C-13.62445587 2.40251129 -12.36609924 2.39096008 -11.0696106 2.37905884 C-9.32803177 2.3492543 -9.32803177 2.3492543 -7.55126953 2.31884766 C-6.52534698 2.30552399 -5.49942444 2.29220032 -4.44241333 2.2784729 C-1.82133597 2.2363046 -1.82133597 2.2363046 0 0 Z " fill="#090909" transform="translate(250,191)" />
    <path d="M0 0 C0.33 0 0.66 0 1 0 C1 6.93 1 13.86 1 21 C7.67670226 22.33534045 13.18499037 23.3308497 19.8125 23.25 C20.60567627 23.24613281 21.39885254 23.24226562 22.21606445 23.23828125 C31.8567981 23.10327535 41.42533775 22.06702704 51 21 C50 24 50 24 47.8125 25.125 C40.44073369 27.41843841 33.02074012 27.21797596 25.375 27.25 C24.16714844 27.270625 22.95929688 27.29125 21.71484375 27.3125 C13.77411557 27.34669043 6.55713571 26.53957038 -1 24 C-2 23 -2 23 -2.0625 19.9375 C-2.041875 18.968125 -2.02125 17.99875 -2 17 C-1.67 17 -1.34 17 -1 17 C-0.67 11.39 -0.34 5.78 0 0 Z " fill="#181818" transform="translate(338,496)" />
    <path d="M0 0 C9.59923567 0.5644823 19.17734878 0.64915354 28.7890625 0.625 C29.52902843 0.62346924 30.26899437 0.62193848 31.03138351 0.62036133 C36.39725733 0.60817385 41.76307342 0.58635189 47.12890625 0.5625 C52.53427712 0.53865195 57.93961824 0.51839359 63.34502983 0.50656128 C65.47184868 0.500201 67.5985692 0.48771266 69.72535706 0.47485352 C77.56187886 0.45513468 85.27056553 0.7505155 93.06640625 1.5625 C93.06640625 1.8925 93.06640625 2.2225 93.06640625 2.5625 C80.23527791 2.58573754 67.40415464 2.60347305 54.57300949 2.61431217 C48.61409508 2.61951611 42.65519515 2.62656828 36.69628906 2.63793945 C30.93856922 2.64885713 25.18086325 2.65479556 19.42313385 2.65737724 C17.23367342 2.65921555 15.0442137 2.66280513 12.85475922 2.66823006 C-9.17271194 2.7206055 -9.17271194 2.7206055 -18.93359375 1.5625 C-18.93359375 1.2325 -18.93359375 0.9025 -18.93359375 0.5625 C-12.50979874 -0.24031087 -6.44837591 -0.46098026 0 0 Z " fill="#3F3F3F" transform="translate(174.93359375,481.4375)" />
    <path d="M0 0 C0.33 0 0.66 0 1 0 C1 10.89 1 21.78 1 33 C2.98 33 4.96 33 7 33 C6.505 33.99 6.505 33.99 6 35 C3.96557617 35.57836914 3.96557617 35.57836914 1.29296875 36.03515625 C0.32029053 36.2043457 -0.6523877 36.37353516 -1.65454102 36.54785156 C-2.69666748 36.71768555 -3.73879395 36.88751953 -4.8125 37.0625 C-5.87331787 37.2387793 -6.93413574 37.41505859 -8.02709961 37.59667969 C-22.42385508 39.93840731 -36.44239842 40.1263006 -51 40 C-51 39.67 -51 39.34 -51 39 C-49.64805542 38.87939209 -49.64805542 38.87939209 -48.26879883 38.75634766 C-44.85963354 38.45021496 -41.4508468 38.14035267 -38.04223633 37.828125 C-36.57915141 37.69484058 -35.11593803 37.56295741 -33.65258789 37.43261719 C-25.32206599 36.68958607 -17.08654758 35.81156709 -8.83862305 34.38037109 C-6 34 -6 34 0 34 C0 22.78 0 11.56 0 0 Z " fill="#0E0E0E" transform="translate(307,443)" />
    <path d="M0 0 C0.598125 0.226875 1.19625 0.45375 1.8125 0.6875 C1.338125 1.5125 0.86375 2.3375 0.375 3.1875 C-2.80341637 10.30715266 -2.41698266 18.43529425 -2.6875 26.125 C-3.18466159 40.20203847 -3.18466159 40.20203847 -4.1875 46.6875 C-5.1775 47.1825 -5.1775 47.1825 -6.1875 47.6875 C-6.3647598 27.57836046 -6.3647598 27.57836046 -5.3984375 19.3515625 C-5.03731099 14.79066841 -5.27350779 10.22423395 -5.4453125 5.65625 C-5.1875 2.6875 -5.1875 2.6875 -3.81640625 0.76171875 C-2.1875 -0.3125 -2.1875 -0.3125 0 0 Z " fill="#262626" transform="translate(195.1875,34.3125)" />
    <path d="M0 0 C31.35 0 62.7 0 95 0 C95 0.33 95 0.66 95 1 C64.97 1.33 34.94 1.66 4 2 C4 2.66 4 3.32 4 4 C3.01 4 2.02 4 1 4 C0.67 2.68 0.34 1.36 0 0 Z " fill="#090909" transform="translate(160,363)" />
    <path d="M0 0 C2 2 2 2 2.1171875 3.92578125 C0.31131498 21.72236371 -7.55376925 38.67374069 -18 53 C-18.495 51.515 -18.495 51.515 -19 50 C-17.77734375 47.79296875 -17.77734375 47.79296875 -15.9375 45.1875 C-6.79081009 31.19524223 -3.54495948 16.12899571 0 0 Z " fill="#2D2D2D" transform="translate(270,139)" />
    <path d="M0 0 C0.66 0 1.32 0 2 0 C-2.65824978 10.82219645 -17.92129943 16.00040063 -28.125 20.32421875 C-33.77800905 22.48424635 -39.91347126 24.69031361 -46 25 C-46.66 24.34 -47.32 23.68 -48 23 C-47.43716309 22.8548999 -46.87432617 22.7097998 -46.29443359 22.56030273 C-29.35244131 18.12886864 -12.72931934 12.72931934 0 0 Z " fill="#282828" transform="translate(283,190)" />
    <path d="M0 0 C0.66 0 1.32 0 2 0 C1.39534415 17.11176054 -3.31163101 32.95879945 -9 49 C-9.66 48.67 -10.32 48.34 -11 48 C-10.72845093 47.01555908 -10.72845093 47.01555908 -10.45141602 46.01123047 C-4.03396963 23.25524685 -4.03396963 23.25524685 0 0 Z " fill="#2D2D2D" transform="translate(156,363)" />
    <path d="M0 0 C1.87402747 2.81104121 2.673313 4.78905669 3.62109375 7.98046875 C4.06291992 9.46812744 4.06291992 9.46812744 4.51367188 10.98583984 C13.30426493 41.45091313 13.30426493 41.45091313 11 53 C10.67 53 10.34 53 10 53 C9.90501221 52.34217529 9.81002441 51.68435059 9.7121582 51.0065918 C7.94252507 38.9300272 6.09390198 27.01157886 2.66333008 15.2800293 C1.19235251 10.17997594 0.47396905 5.2917863 0 0 Z " fill="#2C2C2C" transform="translate(97,227)" />
    <path d="M0 0 C-0.33 0.99 -0.66 1.98 -1 3 C-7.18207232 3.78052377 -13.18333292 4.13749927 -19.41015625 4.09765625 C-20.26306747 4.0962413 -21.1159787 4.09482635 -21.99473572 4.09336853 C-24.68402816 4.08782939 -27.37323328 4.0752888 -30.0625 4.0625 C-31.90038941 4.05747712 -33.73828015 4.0529156 -35.57617188 4.04882812 C-40.05081422 4.03788 -44.52539238 4.02065839 -49 4 C-49 3.67 -49 3.34 -49 3 C-43.06 2.67 -37.12 2.34 -31 2 C-31 1.67 -31 1.34 -31 1 C-20.66061606 0.39434571 -10.3625183 -0.18615302 0 0 Z " fill="#2C2C2C" transform="translate(274,515)" />
    <path d="M0 0 C3.38334653 1.26208899 6.28706749 2.72607395 9.3125 4.6875 C18.57725025 10.35469356 28.83790328 14.25428283 39 18 C39 18.33 39 18.66 39 19 C24.91236361 18.29561818 10.90145957 10.72116766 0 2 C0 1.34 0 0.68 0 0 Z " fill="#161616" transform="translate(157,194)" />
    <path d="M0 0 C0.66 0.33 1.32 0.66 2 1 C-2.89564547 6.17899472 -8.06275912 11.02168585 -14 15 C-14.66 15 -15.32 15 -16 15 C-16 15.66 -16 16.32 -16 17 C-13.36 17 -10.72 17 -8 17 C-8 17.33 -8 17.66 -8 18 C-12.4378561 19.11165232 -16.76956386 19.11527763 -21.3125 19.0625 C-22.05306641 19.05798828 -22.79363281 19.05347656 -23.55664062 19.04882812 C-25.37112899 19.03712175 -27.18557534 19.01918898 -29 19 C-29 18.67 -29 18.34 -29 18 C-28.14341797 17.84917969 -28.14341797 17.84917969 -27.26953125 17.6953125 C-18.57512045 15.67721397 -12.68199568 10.60194984 -6 5 C-4.86980617 4.0598784 -3.73959834 3.11977362 -2.609375 2.1796875 C-1.74828125 1.46039063 -0.8871875 0.74109375 0 0 Z " fill="#0A0A0A" transform="translate(245,197)" />
    <path d="M0 0 C0.61875 0.28875 1.2375 0.5775 1.875 0.875 C6.15866124 2.41711805 10.52928212 3.18398547 15 4 C15 4.33 15 4.66 15 5 C17.31 5.33 19.62 5.66 22 6 C22 6.33 22 6.66 22 7 C10.2422322 7.36743024 -0.52477612 6.62648176 -12 4 C-11.34 3.34 -10.68 2.68 -10 2 C-7.6171875 2.0234375 -7.6171875 2.0234375 -4.875 2.375 C-3.96492187 2.48585937 -3.05484375 2.59671875 -2.1171875 2.7109375 C-1.06917969 2.85402344 -1.06917969 2.85402344 0 3 C0 2.01 0 1.02 0 0 Z " fill="#393939" transform="translate(206,210)" />
    <path d="M0 0 C0.66 0.33 1.32 0.66 2 1 C2 1.66 2 2.32 2 3 C-11.52756572 6.21393172 -24.18096969 6.04609125 -38 5 C-38 4.67 -38 4.34 -38 4 C-36.09541016 3.92652344 -36.09541016 3.92652344 -34.15234375 3.8515625 C-16.84175348 3.47522831 -16.84175348 3.47522831 0 0 Z " fill="#373737" transform="translate(390,492)" />
    <path d="M0 0 C-5.47559451 5.47559451 -19.6010459 4.10890193 -26.98925781 4.13623047 C-31.32674934 4.12005105 -35.66317717 4.07795727 -40 4 C-40 3.67 -40 3.34 -40 3 C-35.58965421 2.56785354 -31.17885222 2.14080122 -26.76757812 1.71826172 C-25.27005019 1.57411982 -23.77265055 1.42863801 -22.27539062 1.28173828 C-20.11100907 1.06962889 -17.94619679 0.86250077 -15.78125 0.65625 C-13.8331543 0.46772461 -13.8331543 0.46772461 -11.84570312 0.27539062 C-7.87000298 -0.00930908 -3.98360433 -0.04650122 0 0 Z " fill="#202020" transform="translate(296,479)" />
    <path d="M0 0 C0.33 0 0.66 0 1 0 C1.84327749 8.35748222 2.12190678 16.60197746 2 25 C1.34 25 0.68 25 0 25 C0 26.65 0 28.3 0 30 C-0.33 30 -0.66 30 -1 30 C-1.02917234 26.12501596 -1.04685673 22.25006042 -1.0625 18.375 C-1.07087891 17.28058594 -1.07925781 16.18617187 -1.08789062 15.05859375 C-1.09111328 13.99511719 -1.09433594 12.93164062 -1.09765625 11.8359375 C-1.10289307 10.86188965 -1.10812988 9.8878418 -1.11352539 8.88427734 C-0.99414506 5.85124679 -0.55866724 2.98084732 0 0 Z " fill="#404040" transform="translate(245,53)" />
    <path d="M0 0 C8.68873263 2.34830612 16.28026943 5.35887942 24 10 C23.67 10.99 23.34 11.98 23 13 C22.01 13 21.02 13 20 13 C19.29488281 12.24332031 18.58976562 11.48664063 17.86328125 10.70703125 C14.25125218 7.29211154 10.85284016 6.16961561 6.1875 4.6875 C5.39923828 4.42388672 4.61097656 4.16027344 3.79882812 3.88867188 C1.87026677 3.24581809 -0.06430532 2.62104427 -2 2 C-1.34 1.34 -0.68 0.68 0 0 Z " fill="#191919" transform="translate(281,128)" />
    <path d="M0 0 C0.99 0 1.98 0 3 0 C4.65 9.9 6.3 19.8 8 30 C7.34 30 6.68 30 6 30 C3.33277657 20.03028135 1.21901839 10.26541802 0 0 Z " fill="#212121" transform="translate(281,363)" />
    <path d="M0 0 C0.33 0 0.66 0 1 0 C1.20542083 14.76747504 1.20542083 14.76747504 0 22 C-0.66 22.33 -1.32 22.66 -2 23 C-2.0580476 19.72924117 -2.09361165 16.45861476 -2.125 13.1875 C-2.14175781 12.25873047 -2.15851563 11.32996094 -2.17578125 10.37304688 C-2.18222656 9.48037109 -2.18867188 8.58769531 -2.1953125 7.66796875 C-2.20578613 6.84578857 -2.21625977 6.0236084 -2.22705078 5.17651367 C-2 3 -2 3 0 0 Z " fill="#2E2E2E" transform="translate(191,59)" />
    <path d="M0 0 C0.95648438 0.05220703 1.91296875 0.10441406 2.8984375 0.15820312 C5.22443419 0.28613294 7.54979719 0.42098545 9.875 0.5625 C6.0423896 2.66470763 3.27190945 2.80038125 -1.125 2.75 C-1.78056885 2.74355469 -2.4361377 2.73710937 -3.11157227 2.73046875 C-9.14264469 2.63704296 -15.12819081 2.18786558 -21.125 1.5625 C-21.125 1.2325 -21.125 0.9025 -21.125 0.5625 C-13.99276167 -0.3670755 -7.17120324 -0.43812829 0 0 Z " fill="#505050" transform="translate(177.125,481.4375)" />
    <path d="M0 0 C0.66 0 1.32 0 2 0 C-0.15824033 5.2119208 -4.41704462 7.95237305 -9 11 C-12.5625 12.4375 -12.5625 12.4375 -15 13 C-15 12.34 -15 11.68 -15 11 C-12.90349049 9.41728296 -10.81323795 7.94497569 -8.625 6.5 C-4.09157646 3.53147095 -4.09157646 3.53147095 0 0 Z " fill="#222222" transform="translate(283,190)" />
    <path d="M0 0 C0.33 0 0.66 0 1 0 C1.05805933 4.24994263 1.09361654 8.49978324 1.125 12.75 C1.14175781 13.9565625 1.15851563 15.163125 1.17578125 16.40625 C1.18222656 17.56640625 1.18867188 18.7265625 1.1953125 19.921875 C1.20578613 20.99018555 1.21625977 22.05849609 1.22705078 23.15917969 C1.00161519 25.97979105 0.45848994 27.60787463 -1 30 C-1.33 30 -1.66 30 -2 30 C-1.34 20.1 -0.68 10.2 0 0 Z " fill="#040404" transform="translate(398,456)" />
    <path d="M0 0 C1.40543043 4.21629128 -0.37829884 6.76065979 -2.1875 10.5625 C-2.49236328 11.24763672 -2.79722656 11.93277344 -3.11132812 12.63867188 C-4.48609266 15.57553783 -5.48552652 17.6633027 -8.23828125 19.46484375 C-8.81964844 19.64144531 -9.40101563 19.81804687 -10 20 C-8.34229667 15.50675151 -6.15017838 11.38813854 -3.875 7.1875 C-3.50246094 6.49462891 -3.12992188 5.80175781 -2.74609375 5.08789062 C-1.83309623 3.39065164 -0.91687284 1.69514862 0 0 Z " fill="#262626" transform="translate(145,411)" />
    <path d="M0 0 C0.66 0 1.32 0 2 0 C1.53430878 7.8187104 0.77541538 15.36399015 -1 23 C-3.51060263 19.23409606 -2.97211259 18.10333436 -2.1875 13.75 C-1.88779297 12.01943359 -1.88779297 12.01943359 -1.58203125 10.25390625 C-1.38996094 9.18011719 -1.19789063 8.10632813 -1 7 C-0.78350836 5.56370602 -0.57296836 4.12646406 -0.375 2.6875 C-0.25125 1.800625 -0.1275 0.91375 0 0 Z " fill="#2B2B2B" transform="translate(156,363)" />
    <path d="M0 0 C0.66 0.33 1.32 0.66 2 1 C-2.94409802 6.2302516 -8.23424506 10.69856377 -14 15 C-14.66 14.34 -15.32 13.68 -16 13 C-14.2711195 11.58298411 -12.54188254 10.16640314 -10.8125 8.75 C-9.84957031 7.96109375 -8.88664063 7.1721875 -7.89453125 6.359375 C-5.27499477 4.22415228 -2.64270803 2.10643639 0 0 Z " fill="#1D1D1D" transform="translate(245,197)" />
    <path d="M0 0 C8.58 0.66 17.16 1.32 26 2 C26 2.33 26 2.66 26 3 C22.4375173 3.02913821 18.87506546 3.04684529 15.3125 3.0625 C13.80139648 3.07506836 13.80139648 3.07506836 12.25976562 3.08789062 C11.28330078 3.09111328 10.30683594 3.09433594 9.30078125 3.09765625 C7.95753784 3.10551147 7.95753784 3.10551147 6.5871582 3.11352539 C3.96358241 2.99840198 1.55706947 2.58234285 -1 2 C-0.67 1.34 -0.34 0.68 0 0 Z " fill="#1A1A1A" transform="translate(341,495)" />
    <path d="M0 0 C0.33 0 0.66 0 1 0 C2.12298921 8.46561098 1.80542989 16.51200811 1 25 C0.67 25 0.34 25 0 25 C-1.33257403 8.29157175 -1.33257403 8.29157175 0 0 Z " fill="#494949" transform="translate(330,272)" />
    <path d="M0 0 C0.33 0 0.66 0 1 0 C1.36508677 2.54052114 1.71731457 5.0817628 2.0625 7.625 C2.16626953 8.33785156 2.27003906 9.05070312 2.37695312 9.78515625 C2.95108834 14.10106924 2.97103611 17.69484691 2 22 C1.67 22 1.34 22 1 22 C0.63517625 18.89698871 0.28499056 15.79249627 -0.0625 12.6875 C-0.16626953 11.80642578 -0.27003906 10.92535156 -0.37695312 10.01757812 C-0.47041016 9.17001953 -0.56386719 8.32246094 -0.66015625 7.44921875 C-0.79369507 6.27879028 -0.79369507 6.27879028 -0.92993164 5.0847168 C-1 3 -1 3 0 0 Z " fill="#454545" transform="translate(106,258)" />
    <path d="M0 0 C0.33 0 0.66 0 1 0 C1.50333542 2.60356241 2.00279378 5.20776651 2.5 7.8125 C2.71462891 8.91948242 2.71462891 8.91948242 2.93359375 10.04882812 C3.50926281 13.07794391 4 15.909196 4 19 C3.01 18.67 2.02 18.34 1 18 C0.63627613 15.75152519 0.28435904 13.50113812 -0.0625 11.25 C-0.25972656 9.99703125 -0.45695313 8.7440625 -0.66015625 7.453125 C-0.95080818 4.49983411 -0.98935727 2.7397586 0 0 Z " fill="#363636" transform="translate(167,135)" />
    <path d="M0 0 C7 0 7 0 10 2 C8.02 2.33 6.04 2.66 4 3 C2.515 8.445 2.515 8.445 1 14 C0.67 14 0.34 14 0 14 C0 9.38 0 4.76 0 0 Z " fill="#090909" transform="translate(271,127)" />
    <path d="M0 0 C2 2 2 2 2.046875 4.2421875 C1.94890625 5.11101562 1.8509375 5.97984375 1.75 6.875 C1.61851562 8.17050781 1.61851562 8.17050781 1.484375 9.4921875 C1.00349575 11.98190102 0.2453726 13.805286 -1 16 C-1.33 16 -1.66 16 -2 16 C-1.85764543 14.27054347 -1.71095618 12.54144346 -1.5625 10.8125 C-1.48128906 9.84957031 -1.40007812 8.88664063 -1.31640625 7.89453125 C-1.02333849 5.21350398 -0.57296246 2.6337014 0 0 Z " fill="#252525" transform="translate(270,139)" />
    <path d="M0 0 C0.99 0.33 1.98 0.66 3 1 C4.01953125 3.65234375 4.01953125 3.65234375 4.8125 6.9375 C5.08707031 8.01902344 5.36164063 9.10054688 5.64453125 10.21484375 C5.76183594 11.13394531 5.87914062 12.05304688 6 13 C5.34 13.66 4.68 14.32 4 15 C3.3299166 12.87607494 2.66403203 10.75082476 2 8.625 C1.62875 7.44164062 1.2575 6.25828125 0.875 5.0390625 C0 2 0 2 0 0 Z " fill="#414141" transform="translate(287,393)" />
    <path d="M0 0 C4.77609498 1.64178265 8.79382904 4.26546702 13 7 C12.67 7.99 12.34 8.98 12 10 C9.99426318 8.71656721 7.99563881 7.4239631 6 6.125 C5.42765625 5.76019531 4.8553125 5.39539063 4.265625 5.01953125 C2.80818084 4.06525233 1.39962775 3.03722413 0 2 C0 1.34 0 0.68 0 0 Z " fill="#262626" transform="translate(157,194)" />
    <path d="M0 0 C3.99500618 1.3697164 6.80009492 3.25722422 10 6 C9.67 6.99 9.34 7.98 9 9 C7.49428343 7.88266271 5.99555708 6.75589965 4.5 5.625 C3.6646875 4.99851563 2.829375 4.37203125 1.96875 3.7265625 C1.3190625 3.15679687 0.669375 2.58703125 0 2 C0 1.34 0 0.68 0 0 Z " fill="#1C1C1C" transform="translate(196,203)" />
    <path d="M0 0 C2.76248869 5.15664556 3.1129027 9.12905966 3 15 C0.50497077 12.50497077 0.41462527 10.94071581 -0.1875 7.5 C-0.36667969 6.5203125 -0.54585938 5.540625 -0.73046875 4.53125 C-1 2 -1 2 0 0 Z " fill="#363636" transform="translate(103,246)" />
    <path d="M0 0 C4.29 1.32 8.58 2.64 13 4 C12.01 4.66 11.02 5.32 10 6 C7.08203125 5.3203125 7.08203125 5.3203125 3.8125 4.125 C2.72582031 3.73570312 1.63914062 3.34640625 0.51953125 2.9453125 C-0.31191406 2.63335937 -1.14335937 2.32140625 -2 2 C-1.34 1.34 -0.68 0.68 0 0 Z " fill="#2E2E2E" transform="translate(281,128)" />
    <path d="M0 0 C-2.99424895 1.64335524 -5.78463145 2.55201254 -9.125 3.25 C-9.99382812 3.44078125 -10.86265625 3.6315625 -11.7578125 3.828125 C-12.86769531 3.91320312 -12.86769531 3.91320312 -14 4 C-14.66 3.34 -15.32 2.68 -16 2 C-14.27507022 1.46530198 -12.544802 0.94780825 -10.8125 0.4375 C-9.36810547 0.00244141 -9.36810547 0.00244141 -7.89453125 -0.44140625 C-4.87247412 -1.02461026 -2.94070045 -0.81178385 0 0 Z " fill="#3F3F3F" transform="translate(251,211)" />
    <path d="M0 0 C0.33 0 0.66 0 1 0 C0.88529863 1.75070517 0.75780972 3.50057536 0.625 5.25 C0.55539062 6.22453125 0.48578125 7.1990625 0.4140625 8.203125 C0.01534751 10.89633189 -0.63507063 12.66963279 -2 15 C-2.05429959 13.25034642 -2.09292823 11.50020213 -2.125 9.75 C-2.15980469 8.28820312 -2.15980469 8.28820312 -2.1953125 6.796875 C-1.99862781 3.9803502 -1.44568916 2.39050964 0 0 Z " fill="#151515" transform="translate(333,262)" />
    <path d="M0 0 C1.65 0 3.3 0 5 0 C5 3.96 5 7.92 5 12 C3 9 3 9 2.5 5.4375 C2.34152243 1.9428808 2.34152243 1.9428808 0 0 Z " fill="#171717" transform="translate(162,127)" />
    <path d="M0 0 C3.875 1.875 3.875 1.875 5 3 C5.07179964 4.51928038 5.08392007 6.04167482 5.0625 7.5625 C5.05347656 8.38878906 5.04445313 9.21507812 5.03515625 10.06640625 C5.01775391 11.02353516 5.01775391 11.02353516 5 12 C4.67 12 4.34 12 4 12 C3.87625 11.030625 3.7525 10.06125 3.625 9.0625 C3.41875 8.051875 3.2125 7.04125 3 6 C2.34 5.67 1.68 5.34 1 5 C0.375 2.4375 0.375 2.4375 0 0 Z " fill="#0A0A0A" transform="translate(302,430)" />
    <path d="M0 0 C0.33 0 0.66 0 1 0 C1.17835515 4.54805635 0.99785435 7.8794254 -1 12 C-1.66 11.67 -2.32 11.34 -3 11 C-2.01 7.37 -1.02 3.74 0 0 Z " fill="#333333" transform="translate(340,232)" />
    <path d="M0 0 C3.63 0 7.26 0 11 0 C8.09907498 1.93395001 7.10325263 2.30131941 3.8125 2.625 C2.554375 2.74875 1.29625 2.8725 0 3 C0 2.01 0 1.02 0 0 Z " fill="#2F2F2F" transform="translate(294,478)" />
    <path d="M0 0 C1 3 1 3 0.22265625 5.04296875 C-0.16019531 5.75066406 -0.54304687 6.45835937 -0.9375 7.1875 C-1.31777344 7.90292969 -1.69804687 8.61835938 -2.08984375 9.35546875 C-2.54037109 10.16951172 -2.54037109 10.16951172 -3 11 C-4 8 -4 8 -3.22265625 5.95703125 C-2.83980469 5.24933594 -2.45695313 4.54164063 -2.0625 3.8125 C-1.68222656 3.09707031 -1.30195313 2.38164062 -0.91015625 1.64453125 C-0.60980469 1.10183594 -0.30945313 0.55914062 0 0 Z " fill="#1E1E1E" transform="translate(145,411)" />
    <path d="M0 0 C0.33 0 0.66 0 1 0 C1.28571429 7.42857143 1.28571429 7.42857143 -1 11 C-2.0257259 6.58937864 -2.03684712 4.07369424 0 0 Z " fill="#404040" transform="translate(153,383)" />
    <path d="M0 0 C0.99 0.33 1.98 0.66 3 1 C2.1875 4.4375 2.1875 4.4375 1 8 C0.01 8.33 -0.98 8.66 -2 9 C-1.34 6.03 -0.68 3.06 0 0 Z " fill="#3B3B3B" transform="translate(267,153)" />
    <path d="M0 0 C0.66 0.33 1.32 0.66 2 1 C-1.465 3.97 -1.465 3.97 -5 7 C-5 6.01 -5 5.02 -5 4 C-2.5 1.8125 -2.5 1.8125 0 0 Z " fill="#2E2E2E" transform="translate(245,197)" />
    <path d="M0 0 C1.39195915 4.17587745 -0.17676781 6.13474776 -2 10 C-2.33 10 -2.66 10 -3 10 C-2.25 3.375 -2.25 3.375 0 0 Z " fill="#1C1C1C" transform="translate(266,161)" />
    <path d="M0 0 C2.89932357 2.39509338 3.50168276 4.31245243 4 8 C3.01 8.495 3.01 8.495 2 9 C0.50178941 5.62902617 0 3.79557881 0 0 Z " fill="#2B2B2B" transform="translate(292,406)" />
  </g>
</svg>
