<?xml version="1.0" encoding="UTF-8"?>
<svg version="1.1" xmlns="http://www.w3.org/2000/svg" width="393" height="542" viewBox="0 0 393 542">
  <!-- Máscara de fondo -->
  <path d="M0 0 C129.69 0 259.38 0 393 0 C393 178.86 393 357.72 393 542 C263.31 542 133.62 542 0 542 C0 363.14 0 184.28 0 0 Z M145.59375 53.59375 C123.38151566 79.56016479 102.18870029 120.06099308 104.75634766 154.85009766 C105.30303477 159.67387193 106.73470108 163.73673557 109 168 C109.43570313 168.82242188 109.87140625 169.64484375 110.3203125 170.4921875 C114.0344291 177.00711333 118.50960041 183.00520258 123 189 C122.04222656 189.47308594 121.08445312 189.94617188 120.09765625 190.43359375 C115.72165895 192.6024311 111.35883127 194.79689506 107 197 C105.87078125 197.56895996 105.87078125 197.56895996 104.71875 198.14941406 C96.25378551 202.43700675 88.09484274 206.59906404 81 213 C80.30261719 213.58265625 79.60523438 214.1653125 78.88671875 214.765625 C43.93664393 246.30139411 34.78225819 305.74711236 27 350 C26.8148584 351.0317334 26.6297168 352.0634668 26.43896484 353.12646484 C23.6781265 368.7470657 21.99171338 384.48406058 20.3125 400.25 C20.20372528 401.27109863 20.09495056 402.29219727 19.98287964 403.34423828 C19.29011564 409.89319271 18.62902897 416.44462308 18 423 C17.88221191 424.20809326 17.76442383 425.41618652 17.64306641 426.66088867 C16.74661849 437.24203194 16.77841719 447.86044994 16.75976562 458.47241211 C16.75013105 461.76767931 16.71904876 465.06230201 16.6875 468.35742188 C16.60601152 485.02570298 17.60556991 501.64114525 21 518 C23.04009755 518.65077296 25.08215669 519.29539824 27.125 519.9375 C28.26195312 520.29714844 29.39890625 520.65679688 30.5703125 521.02734375 C46.21805376 525.46502891 66.50625809 524.8927606 82 520 C82.01458252 519.38817871 82.02916504 518.77635742 82.04418945 518.14599609 C82.36331253 506.03285087 83.08331351 494.18465409 84.90673828 482.20214844 C86.37720265 472.17675198 86.73230451 462.1191853 87 452 C87.66 452 88.32 452 89 452 C89.65035371 454.51974253 90.29537493 457.04065935 90.9375 459.5625 C91.21110352 460.61920898 91.21110352 460.61920898 91.49023438 461.69726562 C91.66748047 462.39658203 91.84472656 463.09589844 92.02734375 463.81640625 C92.18968506 464.45006104 92.35202637 465.08371582 92.51928711 465.73657227 C93.76462873 471.60024019 94.17965566 477.37106584 94.31640625 483.33984375 C94.33718735 484.10680069 94.35796844 484.87375763 94.37937927 485.66395569 C94.44420832 488.08838872 94.50344621 490.51292013 94.5625 492.9375 C94.60574879 494.59180662 94.64936499 496.24610367 94.69335938 497.90039062 C94.79982024 501.93349566 94.90127062 505.96669859 95 510 C123.13308553 518.05780924 151.56215152 519.15545415 180.703125 519.16796875 C182.52276635 519.17119947 184.34240747 519.17456473 186.16204834 519.17805481 C189.94348755 519.18397746 193.72490415 519.18590182 197.50634766 519.18530273 C201.32833589 519.18522148 205.15020426 519.19217555 208.97216797 519.20581055 C255.16757002 519.77260266 255.16757002 519.77260266 300 510 C300.01458252 509.18547363 300.02916504 508.37094727 300.04418945 507.53173828 C300.35128881 492.14638586 300.74431595 477.09906529 304 462 C304.21140625 460.98292969 304.4228125 459.96585937 304.640625 458.91796875 C305.066171 456.93917984 305.52626815 454.96780921 306 453 C306.66 453 307.32 453 308 453 C307.98404785 453.58700684 307.9680957 454.17401367 307.95166016 454.77880859 C307.85031624 461.50304297 308.47357882 467.96802069 309.375 474.625 C309.57971924 476.2037793 309.57971924 476.2037793 309.78857422 477.81445312 C310.29030129 481.67934719 310.80471593 485.54247068 311.32226562 489.40527344 C312.63976527 499.2685956 313.49811207 509.06790202 314 519 C322.13151403 523.16607323 329.3496861 523.55251653 338.375 523.375 C339.6125 523.37371094 340.85 523.37242187 342.125 523.37109375 C353.89260952 523.25961113 364.24024942 521.90378013 375 517 C375.12846313 515.37372681 375.12846313 515.37372681 375.25952148 513.71459961 C375.57973116 509.66836009 375.9028441 505.62235664 376.22680664 501.57641602 C376.36626328 499.8297337 376.50494659 498.08298946 376.64282227 496.33618164 C376.84184697 493.81639957 377.04370888 491.2968579 377.24609375 488.77734375 C377.3065538 488.00414291 377.36701385 487.23094208 377.42930603 486.43431091 C377.69527301 483.1522654 378.00940856 479.9417228 378.53466797 476.68823242 C380.86240455 458.23853856 378.64011653 439.03006434 376.8125 420.625 C376.58534067 418.25911719 376.35820888 415.89323174 376.13110352 413.52734375 C373.55882154 387.18182146 370.17196006 360.97191631 365 335 C364.73002197 333.60394531 364.73002197 333.60394531 364.45458984 332.1796875 C356.42563778 290.75775079 345.04706812 235.10592438 309.0390625 207.95703125 C302.00033202 203.42437833 294.47920226 199.74182664 287 196 C285.40484339 195.19551973 283.80978831 194.39083811 282.21484375 193.5859375 C278.48397497 191.70877082 274.74481992 189.84916625 271 188 C271.58007812 187.32195312 272.16015625 186.64390625 272.7578125 185.9453125 C277.812762 179.92274891 282.32920391 173.96223939 286 167 C286.41378906 166.2575 286.82757813 165.515 287.25390625 164.75 C293.51785588 151.82923979 290.20751406 135.12937465 286 122 C276.08274586 93.98279342 256.28704127 51.11799608 228.0703125 36.90234375 C227.38710937 36.60457031 226.70390625 36.30679688 226 36 C225.25443848 35.67427002 224.50887695 35.34854004 223.74072266 35.01293945 C214.26296809 31.51007078 203.71963308 31.68498065 193.75 31.75 C192.54859375 31.74226563 191.3471875 31.73453125 190.109375 31.7265625 C170.68710601 31.7691552 158.53047519 39.6489683 145.59375 53.59375 Z " fill="#FDFDFD" transform="translate(0,0)" />

  <!-- 👕 ZONA: Cuerpo -->
  <g id="zona-cuerpo" fill="#1B2B4B">
    <path d="M0 0 C3.4771758 -0.00218446 6.95403238 -0.02040124 10.43115234 -0.03930664 C20.77325746 -0.0664719 31.05491194 0.04267651 41.35693359 1.02124023 C42.52026215 1.12762566 42.52026215 1.12762566 43.70709229 1.23616028 C70.27629614 4.14215557 105.1326348 22.31132522 123.38427734 41.25170898 C125.67126694 46.37415175 122.39272678 53.3185425 120.87304688 58.36865234 C117.87608306 68.36659228 115.45830299 78.30276894 113.87255859 88.62280273 C113.71746826 89.6138501 113.56237793 90.60489746 113.40258789 91.62597656 C110.9330633 108.87606318 111.12464699 126.2738985 111.20295906 143.65719414 C111.22060754 147.70905422 111.23094691 151.76087199 111.23887634 155.8127594 C111.26275297 167.32019903 111.29875423 178.82758428 111.34350586 190.33496094 C111.36826884 196.72348979 111.38549751 203.11199796 111.39506525 209.50056797 C111.40046068 212.85949322 111.41085493 216.21822018 111.42845345 219.57711601 C111.52558855 238.27445453 111.23196156 256.59366057 106.87255859 274.87280273 C106.57865234 276.21761719 106.57865234 276.21761719 106.27880859 277.58959961 C103.65435922 288.94283473 103.65435922 288.94283473 100.24755859 293.18530273 C96.25117359 295.27059012 91.9186608 295.95651009 87.51318359 296.70874023 C86.39668427 296.90178238 86.39668427 296.90178238 85.25762939 297.09872437 C77.92314251 298.31786495 70.57377913 299.05225635 63.16503906 299.63842773 C61.01072121 299.80925898 58.85772388 299.99239024 56.70458984 300.17749023 C37.8459722 301.76175403 18.98240111 302.42183558 0.06005859 302.43530273 C-0.94058624 302.43630981 -1.94123108 302.43731689 -2.97219849 302.43835449 C-31.34320185 302.41933139 -60.80159788 301.82765549 -88.61621094 295.63330078 C-91.0272424 295.09116333 -91.0272424 295.09116333 -94.63134766 294.76342773 C-98.34405007 292.88616644 -98.51996906 292.12997565 -99.86181641 288.32983398 C-100.43967814 286.22742921 -100.98531922 284.11596577 -101.50244141 281.99780273 C-101.77958984 281.0071582 -102.05673828 280.01651367 -102.34228516 278.99584961 C-107.61433043 258.93485104 -108.23916132 238.37037273 -108.43994141 217.74780273 C-108.47322853 215.34739491 -108.50772797 212.94700358 -108.54345703 210.54663086 C-108.62702494 204.75963597 -108.69589476 198.97262162 -108.75244141 193.18530273 C-108.78558441 194.142341 -108.81872742 195.09937927 -108.85287476 196.0854187 C-109.17031487 205.23096921 -109.49362348 214.37629717 -109.82227135 223.52145195 C-109.99093923 228.21985547 -110.15773794 232.91830782 -110.31982422 237.61694336 C-111.56066812 273.50492252 -111.56066812 273.50492252 -112.66650391 289.06811523 C-112.73042328 290.0457785 -112.79434265 291.02344177 -112.86019897 292.0307312 C-113.3970864 298.83961345 -114.34437263 305.76370533 -116.75244141 312.18530273 C-123.33806171 316.57571627 -132.23806799 315.36859603 -139.87744141 315.37280273 C-141.02470703 315.38504883 -142.17197266 315.39729492 -143.35400391 315.40991211 C-152.42499495 315.42523473 -161.9919155 315.31933159 -170.37744141 311.56030273 C-175.9600358 305.97770834 -176.07867737 299.44786849 -176.08126831 291.91915894 C-176.06473387 289.79931971 -176.03352731 287.67997258 -176.00244141 285.56030273 C-175.99594648 284.19312074 -175.99073199 282.82593205 -175.98681641 281.45874023 C-175.88079193 262.4309836 -174.73331839 243.53039251 -172.62744141 224.62280273 C-172.52084198 223.65250122 -172.41424255 222.68219971 -172.30441284 221.68249512 C-168.86230432 190.59358013 -164.59448065 159.49950632 -156.75244141 129.18530273 C-156.25238171 127.17261975 -155.75369975 125.159594 -155.25634766 123.14624023 C-149.46721143 99.99346062 -142.075318 77.03765189 -129.87744141 56.37280273 C-129.34219849 55.45785034 -129.34219849 55.45785034 -128.79614258 54.52441406 C-126.78472102 51.27949759 -125.2050459 49.72004344 -121.75244141 48.18530273 C-118.58560291 55.45670345 -116.41863658 62.71752371 -114.62744141 70.43530273 C-114.36809814 71.53849854 -114.10875488 72.64169434 -113.84155273 73.77832031 C-110.97464551 86.21134567 -109.48848533 98.44012114 -108.75244141 111.18530273 C-107.6098478 91.07565527 -112.44435198 72.34800993 -118.51806641 53.30249023 C-118.93292716 51.93111908 -119.3447278 50.55881571 -119.75244141 49.18530273 C-120.06955078 48.12311523 -120.38666016 47.06092773 -120.71337891 45.96655273 C-120.75244141 43.18530273 -120.75244141 43.18530273 -118.90087891 40.47436523 C-107.67753232 29.69362949 -94.6990893 22.82351082 -80.75244141 16.18530273 C-79.88844727 15.76925781 -79.02445312 15.35321289 -78.13427734 14.92456055 C-66.87591564 9.52802334 -56.01653398 4.72766351 -43.75244141 2.18530273 C-43.00325439 2.01885254 -42.25406738 1.85240234 -41.48217773 1.6809082 C-27.98503037 -0.76960688 -13.65409153 -0.00095711 0 0 Z " transform="translate(195.75244140625,180.814697265625)" />
    <path d="M0 0 C41.20815624 36.41349655 43.59536009 126.04908454 49.75 177.375 C49.85700226 178.26482574 49.96400452 179.15465149 50.07424927 180.07144165 C51.97388932 195.95446646 53.16864403 211.57219734 53.13037109 227.57617188 C53.12498158 230.2591713 53.13036326 232.94200544 53.13671875 235.625 C53.13605832 237.35937536 53.13477788 239.09375062 53.1328125 240.828125 C53.13483673 241.6158429 53.13686096 242.40356079 53.13894653 243.21514893 C53.08060242 257.24867884 53.08060242 257.24867884 50.1875 261.9375 C41.62505089 270.0106663 26.4612385 268.18047762 15.5625 268.1875 C13.73138672 268.1887085 13.73138672 268.1887085 11.86328125 268.18994141 C-0.81911382 268.11137481 -0.81911382 268.11137481 -5 267 C-11.33078237 257.25444043 -9.84657096 239.87961549 -10.5625 228.625 C-10.62725525 227.63666168 -10.6920105 226.64832336 -10.75872803 225.6300354 C-11.73649961 210.67640528 -12.43555875 195.7429266 -12.7890625 180.76171875 C-12.90589633 176.11182256 -13.16543573 171.49375657 -13.50268555 166.85498047 C-14.15182274 157.09213502 -14.16407705 147.33936014 -14.16796875 137.55859375 C-14.17119499 135.61873858 -14.17455999 133.67888364 -14.17805481 131.73902893 C-14.18399911 127.69409625 -14.18589965 123.64918478 -14.18530273 119.60424805 C-14.18522159 115.50557024 -14.192153 111.40700446 -14.20581055 107.30834961 C-14.45064298 32.66767696 -14.45064298 32.66767696 0 0 Z " transform="translate(322,228)" />
    <path d="M0 0 C0.66 0 1.32 0 2 0 C2.65828835 8.64178539 3.05161435 17.26764284 3.27514648 25.93115234 C3.64365076 39.79376078 4.30399535 53.62568334 5.18634033 67.46524048 C5.31041104 69.41992617 5.43123196 71.37482132 5.54852295 73.32992554 C6.26160518 85.10389413 7.47932302 96.46384549 10 108 C15.445 108.99 15.445 108.99 21 110 C21 110.33 21 110.66 21 111 C17.37 111 13.74 111 10 111 C10.25412228 114.12719887 10.52744364 117.25060274 10.8125 120.375 C10.88275391 121.26445312 10.95300781 122.15390625 11.02539062 123.0703125 C11.10595703 123.92109375 11.18652344 124.771875 11.26953125 125.6484375 C11.33760986 126.43395996 11.40568848 127.21948242 11.47583008 128.02880859 C11.87157395 130.3921737 11.87157395 130.3921737 15 132 C29.74176676 135.82182665 50.07666117 134.27530764 64 128 C65.77277259 126.47992158 65.77277259 126.47992158 67 125 C67 127.31 67 129.62 67 132 C65.00283825 132.65455759 63.00209613 133.2981943 61 133.9375 C59.88625 134.29714844 58.7725 134.65679688 57.625 135.02734375 C49.05369048 137.32718865 40.45055568 137.24536849 31.625 137.3125 C30.36171875 137.34150391 29.0984375 137.37050781 27.796875 137.40039062 C20.00063388 137.45306793 13.96351441 136.59554676 7 133 C6.95512451 132.38294189 6.91024902 131.76588379 6.86401367 131.13012695 C5.90274229 118.1763067 4.58887662 105.36877766 2.6640625 92.5234375 C1.38883894 83.99032997 0.83160459 75.62558687 1 67 C0.34 67 -0.32 67 -1 67 C-1.72059925 69.99325841 -2.37350115 72.9859293 -3 76 C-3.25265625 77.17175781 -3.5053125 78.34351563 -3.765625 79.55078125 C-6.68377493 94.2238836 -6.73309382 109.09159405 -7 124 C-28.65903218 131.95317147 -52.08698787 133.31774593 -75 133 C-73.09205289 130.32013536 -71.94227874 129.98923613 -68.6484375 129.375 C-67.22509424 129.23766882 -65.80042634 129.11369101 -64.375 129 C-62.75247032 128.84383236 -61.13008166 128.68619488 -59.5078125 128.52734375 C-58.62770508 128.44468262 -57.74759766 128.36202148 -56.84082031 128.27685547 C-43.74119892 127.00021653 -30.58851032 125.70919502 -17.76953125 122.6484375 C-14.86025419 121.96728095 -11.94848128 121.47923325 -9 121 C-9.13835803 116.54140138 -9.28694579 112.08320214 -9.4375 107.625 C-9.47681641 106.35398437 -9.51613281 105.08296875 -9.55664062 103.7734375 C-9.59853516 102.56171875 -9.64042969 101.35 -9.68359375 100.1015625 C-9.72025146 98.98088379 -9.75690918 97.86020508 -9.79467773 96.70556641 C-9.82596013 94.03287229 -9.82596013 94.03287229 -11 92 C-12.89611434 92.14213297 -14.79188394 92.28886907 -16.6875 92.4375 C-17.74324219 92.51871094 -18.79898438 92.59992188 -19.88671875 92.68359375 C-22.92323602 92.93822525 -22.92323602 92.93822525 -25.5625 93.53125 C-28.20387348 94.03920644 -30.62580313 94.09832262 -33.3125 94.0625 C-34.63701172 94.04896484 -34.63701172 94.04896484 -35.98828125 94.03515625 C-36.65214844 94.02355469 -37.31601562 94.01195312 -38 94 C-38 93.67 -38 93.34 -38 93 C-29.09 91.35 -20.18 89.7 -11 88 C-7.78077824 78.34233472 -4.98819692 68.85186172 -3.3125 58.8125 C-3.19334229 58.10125977 -3.07418457 57.39001953 -2.95141602 56.65722656 C-0.96372791 44.09101929 -0.71920758 31.50543864 -0.4375 18.8125 C-0.39421613 16.98371598 -0.35059904 15.15493981 -0.30664062 13.32617188 C-0.20058499 8.88419582 -0.09903971 4.44213779 0 0 Z " transform="translate(307,386)" />
  </g>

  <!-- 💪 ZONA: Manga Izquierda -->
  <g id="zona-manga-izq" fill="#1B2B4B">
    <path d="M0 0 C0.33 0 0.66 0 1 0 C1.00586624 1.02634048 1.01173248 2.05268097 1.01777649 3.11012268 C1.07555093 12.88933847 1.14858452 22.66834344 1.23571491 32.44734287 C1.2800178 37.47212109 1.31935604 42.49682562 1.34643555 47.52172852 C0.95432295 84.56834019 0.95432295 84.56834019 8.1875 120.6875 C8.72715668 122.39832649 9.26250628 124.11051919 9.79296875 125.82421875 C10.0252417 126.53666748 10.25751465 127.24911621 10.49682617 127.9831543 C11 130 11 130 11 134 C12.6396875 134.185625 12.6396875 134.185625 14.3125 134.375 C18 135 18 135 21 137 C14.25 137.125 14.25 137.125 12 136 C12 145.9 12 155.8 12 166 C28.40995522 171.46998507 45.31879598 173.28574214 62.5 174.625 C63.33586639 174.69103424 64.17173279 174.75706848 65.03292847 174.82510376 C92.60895029 176.91987039 120.36629383 176.26847361 148 176 C147.67 176.66 147.34 177.32 147 178 C135.25427895 178.04673237 123.50858071 178.08207394 111.76278496 178.10362434 C106.30634101 178.11397732 100.84996154 178.12797753 95.39355469 178.15087891 C90.10910552 178.17291491 84.82471762 178.18463204 79.54022598 178.18975449 C77.54323489 178.19339594 75.54624642 178.20050284 73.54928207 178.21146011 C55.3118931 178.30737346 36.99402832 177.69640706 19.1875 173.4375 C17.7034668 173.10588867 17.7034668 173.10588867 16.18945312 172.76757812 C9.16522042 171.16522042 9.16522042 171.16522042 8 170 C7.87663723 167.57189226 7.8138215 165.16795914 7.7890625 162.73828125 C7.7609291 161.21027694 7.73226448 159.68228233 7.703125 158.15429688 C7.66235563 155.7544857 7.62547355 153.35484322 7.59863281 150.95483398 C7.47223321 140.54756982 6.581218 131.12747982 4 121 C3.59833731 119.20963117 3.20174889 117.41810869 2.8125 115.625 C2.544375 114.42875 2.27625 113.2325 2 112 C1.34 112 0.68 112 0 112 C-0.01458252 112.55123535 -0.02916504 113.1024707 -0.04418945 113.67041016 C-0.35031636 124.16526279 -0.91945985 134.48859328 -2.5 144.875 C-4.27119912 156.54832911 -4.71893955 168.20788346 -5 180 C-15.55854178 182.811149 -25.15015276 183.35465602 -36 183 C-36 182.34 -36 181.68 -36 181 C-34.78183594 180.89042969 -33.56367187 180.78085937 -32.30859375 180.66796875 C-30.68483712 180.50840885 -29.0611423 180.34821907 -27.4375 180.1875 C-26.63763672 180.11724609 -25.83777344 180.04699219 -25.01367188 179.97460938 C-16.42189464 179.13198485 -16.42189464 179.13198485 -9.6015625 174.296875 C-8.73107471 170.97319435 -8.53049031 167.66489138 -8.375 164.25 C-8.189375 160.66125 -8.189375 160.66125 -8 157 C-14.27 157 -20.54 157 -27 157 C-27 156.67 -27 156.34 -27 156 C-25.86820313 155.86722656 -24.73640625 155.73445312 -23.5703125 155.59765625 C-22.08851821 155.4194658 -20.60674864 155.24106971 -19.125 155.0625 C-18.37863281 154.97548828 -17.63226563 154.88847656 -16.86328125 154.79882812 C-12.8046769 154.36673937 -12.8046769 154.36673937 -9 153 C-6.37084202 145.47653448 -5.42479066 137.65848061 -4.91015625 129.75 C-4.83273697 128.65631104 -4.75531769 127.56262207 -4.67555237 126.43579102 C-3.59542589 110.19275341 -3.09499645 93.91525355 -2.53027344 77.64801025 C-2.40737857 74.14025102 -2.27972153 70.63267278 -2.15186119 67.12509155 C-1.33670734 44.75281413 -0.62489273 22.37837494 0 0 Z " transform="translate(87,340)" />
  </g>

  <!-- 💪 ZONA: Manga Derecha -->
  <g id="zona-manga-der" fill="#1B2B4B">
    <path d="M0 0 C1.61378357 0.46533829 3.22614782 0.93560079 4.83789062 1.40795898 C5.73592407 1.66931137 6.63395752 1.93066376 7.5592041 2.19993591 C12.23057378 3.73115576 15.405838 6.75226326 19 10 C19.77988281 10.68707031 20.55976563 11.37414063 21.36328125 12.08203125 C39.13026338 28.71555359 50.72156494 52.25625711 61 74 C61.55429687 75.14339844 62.10859375 76.28679687 62.6796875 77.46484375 C69.40754155 92.07533277 74.3440055 110.33420924 70.1171875 126.34375 C66.06381876 136.75902861 59.62944772 145.90675607 52 154 C52.93457031 154.46148437 53.86914062 154.92296875 54.83203125 155.3984375 C58.421969 157.17696002 62.001584 158.97546712 65.578125 160.78076172 C67.1984236 161.59646446 68.82084486 162.40796383 70.4453125 163.21533203 C104.42775478 180.14587024 119.72908386 208.09931952 131.5456543 243.12231445 C141.38122704 273.29356999 147.76412882 304.5741253 152 336 C152.14791992 337.0720166 152.29583984 338.1440332 152.44824219 339.24853516 C157.89259508 379.06519712 162.45250904 419.03830568 158.29101562 459.16699219 C157.88364544 463.13269992 157.51541228 467.10183144 157.14404297 471.07104492 C156.77075483 475.04815572 156.38569346 479.02407489 156 483 C155.67 483 155.34 483 155 483 C154.67 481.35 154.34 479.7 154 478 C153.67 478 153.34 478 153 478 C153 472.06 153 466.12 153 460 C150.03 460.33 147.06 460.66 144 461 C146.02893729 459.64737514 148.07113875 458.3144712 150.125 457 C153.04489239 455.30925867 153.04489239 455.30925867 154 453 C154.96108791 447.20393053 155.16757645 441.3598174 155.203125 435.49609375 C155.21022995 434.70902542 155.2173349 433.92195709 155.22465515 433.11103821 C155.36720079 412.55666238 154.56553093 392.41372323 152 372 C151.87886841 371.03292114 151.75773682 370.06584229 151.63293457 369.06945801 C150.63820042 361.16747562 149.60952621 353.27021348 148.5625 345.375 C148.4174704 344.27828979 148.2724408 343.18157959 148.12301636 342.05163574 C145.65665909 323.54155073 142.85370237 305.06285295 138.5625 286.875 C138.35278564 285.97507324 138.14307129 285.07514648 137.92700195 284.14794922 C137.49703639 282.31340808 137.06409387 280.47956167 136.62792969 278.64648438 C136.02497325 276.10525272 135.4378865 273.56073537 134.8515625 271.015625 C128.84875002 245.45970231 120.53456475 215.94118224 104 195 C103.01 194.67 102.02 194.34 101 194 C100.62875 192.989375 100.2575 191.97875 99.875 190.9375 C93.83806589 175.72069185 70.66740788 168.32307332 57 162 C55.43574678 161.26919403 53.87191545 160.53748405 52.30859375 159.8046875 C48.87557994 158.19620147 45.43910963 156.59540877 42 155 C42.56203125 154.76796875 43.1240625 154.5359375 43.703125 154.296875 C53.81894923 148.58521914 62.6584368 133.8641161 66 123 C70.07146177 90.03401694 49.47968681 54.41426162 30.3671875 29.01171875 C22.90138507 19.51314834 14.97367422 10.34960764 4 5 C3.99668985 5.60445324 3.99337971 6.20890648 3.98996925 6.83167648 C3.90875909 21.53740487 3.81667313 36.24303731 3.71247292 50.94861984 C3.66234495 58.06012571 3.61590208 65.17162004 3.578125 72.28320312 C3.54167392 79.1432201 3.49496602 86.00310564 3.44193649 92.86301422 C3.42336999 95.48330747 3.40827043 98.10362759 3.39665604 100.72396088 C3.37983243 104.38739419 3.35080618 108.05053908 3.31884766 111.71386719 C3.31668747 112.80287323 3.31452728 113.89187927 3.31230164 115.0138855 C3.30113815 116.01225433 3.28997467 117.01062317 3.2784729 118.03924561 C3.27294214 118.90573101 3.26741138 119.77221642 3.26171303 120.66495895 C2.97985012 123.17978015 2.2640313 124.82600935 1 127 C1.00222061 125.73340546 1.00444122 124.46681091 1.00672913 123.16183472 C1.02714336 111.13088239 1.04205921 99.09993364 1.05181217 87.06896782 C1.05699506 80.88614038 1.06400752 74.7033271 1.07543945 68.52050781 C1.08643378 62.53580718 1.09231127 56.55112003 1.09487724 50.56641006 C1.09670207 48.30148227 1.10026413 46.03655508 1.10573006 43.77163315 C1.13956053 29.15020019 0.80002644 14.60026998 0 0 Z " transform="translate(219,34)" />
  </g>

  <!-- 🎩 ZONA: Capucha Exterior -->
  <g id="zona-capucha-ext" fill="#1B2B4B">
    <path d="M0 0 C0.85421036 -0.0030011 1.70842072 -0.0060022 2.58851624 -0.00909424 C3.50733078 0.00325256 4.42614532 0.01559937 5.37280273 0.02832031 C6.31824448 0.03019348 7.26368622 0.03206665 8.23777771 0.03399658 C10.23586556 0.04071842 12.23394022 0.05463553 14.23193359 0.07519531 C17.29789393 0.10635889 20.36334033 0.11616687 23.42944336 0.12207031 C25.36890278 0.13123991 27.30835696 0.14161554 29.24780273 0.15332031 C30.16864151 0.15757019 31.08948029 0.16182007 32.03822327 0.16619873 C33.31481056 0.18061005 33.31481056 0.18061005 34.6171875 0.1953125 C35.74278831 0.2055545 35.74278831 0.2055545 36.89112854 0.21600342 C38.74389648 0.35644531 38.74389648 0.35644531 40.74389648 1.35644531 C41.50730381 13.86119877 41.89476614 26.30614728 41.87670898 38.83300781 C41.87738647 40.53958144 41.87836014 42.24615497 41.87960815 43.95272827 C41.88106668 47.50055882 41.87899256 51.04836387 41.87426758 54.59619141 C41.86859681 59.06354425 41.87195065 63.53083725 41.87768936 67.99818802 C41.9340902 119.10477849 41.9340902 119.10477849 38.74389648 143.35644531 C32.79908467 143.4057893 26.8543914 143.44213813 20.90942383 143.46630859 C18.88596521 143.47638202 16.86252121 143.49004127 14.83911133 143.50732422 C11.93494059 143.53151378 9.03096188 143.5429148 6.12670898 143.55175781 C4.76414474 143.56724167 4.76414474 143.56724167 3.37405396 143.58303833 C2.53333344 143.58318939 1.69261292 143.58334045 0.82641602 143.58349609 C-0.28611038 143.59015793 -0.28611038 143.59015793 -1.42111206 143.59695435 C-3.25610352 143.35644531 -3.25610352 143.35644531 -5.25610352 141.35644531 C-5.71498095 138.8371182 -6.05439398 136.3974518 -6.31860352 133.85644531 C-6.43558594 132.87998047 -6.43558594 132.87998047 -6.55493164 131.88378906 C-8.31432937 116.09283091 -8.4075387 100.21946364 -8.38891602 84.35253906 C-8.38959181 82.29232268 -8.39056411 80.23210637 -8.39181519 78.17189026 C-8.39327623 73.89184802 -8.39118748 69.61182687 -8.38647461 65.33178711 C-8.38074554 59.86492222 -8.38408643 54.3981061 -8.39004707 48.93124294 C-8.39366822 44.6923435 -8.39250751 40.45345554 -8.38991928 36.21455574 C-8.389256 34.19845639 -8.39005731 32.18235596 -8.39239883 30.16625786 C-8.39495464 27.35128904 -8.39104518 24.53639857 -8.38549805 21.72143555 C-8.38752228 20.90310242 -8.38954651 20.08476929 -8.39163208 19.24163818 C-8.37734305 15.30284228 -8.2513594 11.38547756 -7.93551636 7.45863342 C-7.87867613 6.74263001 -7.8218359 6.02662661 -7.76327324 5.28892612 C-6.6530591 1.05865088 -4.10314824 -0.01991299 0 0 Z " transform="translate(179.256103515625,35.6435546875)" />
    <path d="M0 0 C29.63128809 13.28299121 47.06265623 54.35997415 58.15429688 82.76611328 C63.23262419 96.18028619 66.67368872 111.83159818 60.58618164 125.4699707 C56.77356747 133.03064011 51.9132277 139.92752918 46 146 C45.24074219 146.80179688 44.48148437 147.60359375 43.69921875 148.4296875 C41 150 41 150 37.46875 149.3671875 C36.13797894 148.89120481 34.81521047 148.39242878 33.5 147.875 C32.0662334 147.37063862 30.62997896 146.8732976 29.19140625 146.3828125 C28.12623779 146.01784668 28.12623779 146.01784668 27.03955078 145.64550781 C17.47155134 142.61728295 6.95289502 142.5540132 -3 142 C-2.97117989 141.45001532 -2.94235977 140.90003063 -2.91266632 140.33337975 C-2.13641635 125.13504232 -1.8232936 109.96246654 -1.73963928 94.74565506 C-1.7182089 90.87893146 -1.69124295 87.01227861 -1.66296387 83.14559937 C-1.59364638 73.57322114 -1.53333523 64.00078895 -1.47393799 54.42834473 C-1.42317674 46.27111445 -1.3684145 38.11393456 -1.30812073 29.95676804 C-1.28153624 26.1426298 -1.26075383 22.32848709 -1.2401123 18.51431274 C-1.22352775 16.20306178 -1.20665758 13.89181284 -1.18945312 11.58056641 C-1.18526871 10.51690857 -1.18108429 9.45325073 -1.17677307 8.35736084 C-1.16842941 7.39635468 -1.16008575 6.43534851 -1.15148926 5.44522095 C-1.14633553 4.60584299 -1.14118179 3.76646503 -1.13587189 2.90165138 C-1 1 -1 1 0 0 Z M43 90 C41.44211375 98.48447225 39.95594594 106.97992509 38.5 115.48242188 C37.4307947 121.67629474 36.26618491 127.84334427 35 134 C37.2572813 133.15014036 37.2572813 133.15014036 37.96484375 130.54296875 C40.06438331 123.29997887 41.61063278 116.13752962 42.75 108.6875 C42.87753662 107.86467529 43.00507324 107.04185059 43.13647461 106.1940918 C43.91564563 100.74645607 44.11037625 95.50225609 44 90 C43.67 90 43.34 90 43 90 Z " transform="translate(223,38)" />
    <path d="M0 0 C-0.00666183 1.845653 -0.00666183 1.845653 -0.01345825 3.72859192 C-0.05438861 15.44893713 -0.08416582 27.16926743 -0.10362434 38.88966846 C-0.1139651 44.91207216 -0.12794166 50.93441717 -0.15087891 56.95678711 C-0.45021433 91.01373683 -0.45021433 91.01373683 1.56689453 124.98706055 C2.06073863 129.99993728 2.09711499 134.966886 2 140 C0.741875 140.09796875 -0.51625 140.1959375 -1.8125 140.296875 C-20.48073728 141.8106953 -20.48073728 141.8106953 -38 148 C-40.97238474 147.90411662 -42.04918745 146.9574595 -44.3125 145 C-45.22360575 144.01389469 -46.11781573 143.0120614 -47 142 C-47.5259375 141.41605469 -48.051875 140.83210937 -48.59375 140.23046875 C-58.00249314 129.04689451 -63.56241048 117.54255857 -62.578125 102.78125 C-59.79003202 76.06742887 -44.67705261 47.37505828 -29 26 C-28.60425781 25.45907715 -28.20851562 24.9181543 -27.80078125 24.36083984 C-9.86303455 0 -9.86303455 0 0 0 Z M-43 88 C-43.49717993 96.99067034 -42.8338838 105.28576007 -41.125 114.125 C-40.95129883 115.02500732 -40.77759766 115.92501465 -40.59863281 116.85229492 C-39.73617619 121.08526709 -38.81772774 125.05340194 -37 129 C-36.01559259 125.88204743 -36.03332509 123.7639041 -36.70703125 120.578125 C-36.88073242 119.72436279 -37.05443359 118.87060059 -37.23339844 117.9909668 C-37.42450195 117.08644775 -37.61560547 116.18192871 -37.8125 115.25 C-39.64224071 106.19026405 -41.01217456 97.1893761 -42 88 C-42.33 88 -42.66 88 -43 88 Z " transform="translate(170,40)" />
  </g>

  <!-- 🔳 ZONA: Capucha Interior -->
  <g id="zona-capucha-int" fill="#F5F5F5">
    <path d="M 0.0000 0.0000 C 1.2162 -0.0122 2.4325 -0.0245 3.6855 -0.0371 C 11.1199 -0.0491 18.0573 0.5447 25.3125 2.1875 C 24.9825 3.1775 24.6525 4.1675 24.3125 5.1875 C 23.0204 5.1770 21.7283 5.1666 20.3970 5.1558 C 15.6149 5.1196 10.8329 5.0966 6.0508 5.0776 C 3.9788 5.0676 1.9069 5.0539 -0.1650 5.0366 C -3.1387 5.0124 -6.1122 5.0010 -9.0859 4.9922 C -10.0162 4.9819 -10.9464 4.9715 -11.9049 4.9609 C -12.7656 4.9608 -13.6264 4.9606 -14.5132 4.9604 C -15.6524 4.9538 -15.6524 4.9538 -16.8145 4.9470 C -18.9325 5.0250 -18.9325 5.0250 -20.6875 7.1875 C -21.9985 13.0893 -21.8362 19.3593 -21.8328 25.3779 C -21.8361 26.2495 -21.8395 27.1211 -21.8429 28.0190 C -21.8524 30.8825 -21.8544 33.7459 -21.8555 36.6094 C -21.8587 38.6345 -21.8621 40.6597 -21.8656 42.6849 C -21.8715 46.9348 -21.8734 51.1847 -21.8728 55.4346 C -21.8727 59.7341 -21.8796 64.0335 -21.8933 68.3330 C -22.3540 107.3735 -22.3540 107.3735 -18.6875 146.1875 C -19.6775 146.5175 -20.6675 146.8475 -21.6875 147.1875 C -22.0070 144.5632 -22.3180 141.9383 -22.6250 139.3125 C -22.7120 138.6048 -22.7990 137.8971 -22.8887 137.1680 C -24.7968 120.6310 -24.8382 104.0287 -24.8203 87.4062 C -24.8210 85.1723 -24.8220 82.9384 -24.8232 80.7045 C -24.8247 76.0655 -24.8226 71.4266 -24.8179 66.7876 C -24.8121 60.8335 -24.8155 54.8795 -24.8214 48.9254 C -24.8250 44.3325 -24.8239 39.7396 -24.8213 35.1467 C -24.8206 32.9490 -24.8215 30.7513 -24.8238 28.5536 C -24.8263 25.5025 -24.8225 22.4515 -24.8169 19.4004 C -24.8189 18.4914 -24.8209 17.5825 -24.8230 16.6460 C -24.8018 10.4161 -24.8018 10.4161 -23.6875 8.1875 Z" transform="translate(193.6875,31.8125)" />
  </g>

  <!-- 〰️ ZONA: Elásticos (Pretina y Puños) -->
  <g id="zona-elastico-inf" fill="#2C2C2C">
    <path d="M0 0 C0.89416626 0.15819214 0.89416626 0.15819214 1.80639648 0.31958008 C4.68226439 0.82412311 7.55985218 1.31821321 10.4375 1.8125 C11.37271484 1.97814453 12.30792969 2.14378906 13.27148438 2.31445312 C16.13219945 2.80197049 18.99674449 3.24826454 21.86724854 3.67407227 C23.33496971 3.89836987 24.80072623 4.13578874 26.2645874 4.3840332 C47.74447129 7.97249404 69.45787175 7.45938638 91.16308594 7.39111328 C96.63673508 7.37406521 102.10994515 7.38414138 107.58357906 7.40144444 C148.14461109 7.64018424 148.14461109 7.64018424 188.15234375 1.55078125 C191.22638955 0.95621272 193.87960943 0.69373122 197 1 C199.36008817 4.54013225 199.23463644 6.01121955 199.1953125 10.19921875 C199.18564453 12.01196289 199.18564453 12.01196289 199.17578125 13.86132812 C199.15064453 15.7552832 199.15064453 15.7552832 199.125 17.6875 C199.11597656 18.96173828 199.10695313 20.23597656 199.09765625 21.54882812 C199.07405641 24.69940627 199.04113194 27.84960983 199 31 C183.97985988 36.38070001 168.30531804 37.69311183 152.5 39.125 C151.67322754 39.20057129 150.84645508 39.27614258 149.99462891 39.35400391 C132.60370582 40.80734836 115.13271374 41.23516039 97.6875 41.25 C96.73609131 41.25133942 95.78468262 41.25267883 94.80444336 41.25405884 C10.22866018 41.22866018 10.22866018 41.22866018 -1 30 C-1.13525391 27.01904297 -1.13525391 27.01904297 -0.9765625 23.2421875 C-0.95153656 22.57913605 -0.92651062 21.91608459 -0.90072632 21.23294067 C-0.81848733 19.11310985 -0.72191635 16.99420563 -0.625 14.875 C-0.56676418 13.43884006 -0.50946081 12.00264198 -0.453125 10.56640625 C-0.31290458 7.04376398 -0.159824 3.5218134 0 0 Z " transform="translate(99,476)" />
  </g>
  <g id="zona-puño-izq" fill="#2C2C2C">
    <path d="M0 0 C6 1 6 1 8.98486328 1.51318359 C18.95511672 3.09780943 28.79813055 3.43125286 38.875 3.625 C40.54559057 3.66329992 42.21616394 3.70235797 43.88671875 3.7421875 C47.92433487 3.8368371 51.96204231 3.92132603 56 4 C56.0814222 6.22855574 56.13938079 8.45797655 56.1875 10.6875 C56.23970703 12.54955078 56.23970703 12.54955078 56.29296875 14.44921875 C55.97996488 18.24282562 55.3166359 20.02310601 53 23 C47.22636002 26.43136226 41.96983765 26.40156646 35.375 26.25 C33.91066528 26.22921387 33.91066528 26.22921387 32.41674805 26.20800781 C29.61024707 26.15866888 26.80565445 26.0838604 24 26 C22.69933594 25.9690625 21.39867187 25.938125 20.05859375 25.90625 C12.70686425 25.55237614 6.80214699 23.81155409 0 21 C0 14.07 0 7.14 0 0 Z " transform="translate(23,494)" />
  </g>
  <g id="zona-puño-der" fill="#2C2C2C">
    <path d="M0 0 C0.05790353 3.29159316 0.09356261 6.58305603 0.125 9.875 C0.14175781 10.81214844 0.15851563 11.74929688 0.17578125 12.71484375 C0.18544922 14.05869141 0.18544922 14.05869141 0.1953125 15.4296875 C0.21102295 16.67081299 0.21102295 16.67081299 0.22705078 17.93701172 C0 20 0 20 -2 22 C-3.87408307 22.59436019 -5.77556119 23.10430638 -7.6875 23.5625 C-8.70199219 23.81128906 -9.71648437 24.06007813 -10.76171875 24.31640625 C-18.22731085 25.89237563 -25.39638888 26.18285232 -33 26.1875 C-34.05445313 26.19974609 -35.10890625 26.21199219 -36.1953125 26.22460938 C-41.84498443 26.23522906 -46.70525056 26.05027662 -52 24 C-55.23518553 20.76481447 -54.97142304 17.00362286 -55.09765625 12.5703125 C-55.08605469 11.43335938 -55.07445312 10.29640625 -55.0625 9.125 C-55.05347656 7.97257812 -55.04445313 6.82015625 -55.03515625 5.6328125 C-55.02355469 4.76398438 -55.01195312 3.89515625 -55 3 C-53.51959229 3.01571045 -53.51959229 3.01571045 -52.00927734 3.03173828 C-48.27803305 3.06848152 -44.54680402 3.09109379 -40.81542969 3.10986328 C-39.21351414 3.11979913 -37.61161611 3.13335247 -36.00976562 3.15087891 C-23.81837048 3.28073713 -11.70548948 0 0 0 Z " transform="translate(372,494)" />
  </g>

  <!-- 🛠️ CAPA DE SOMBRAS Y PLIEGUES 3D (No coloreable) -->
  <g opacity="0.32" style="mix-blend-mode: multiply;">
    <path d="M -75.6875 78.1875 C -77.9201 83.7809 -79.8371 89.4582 -81.6875 95.1875 C -82.0278 96.1234 -82.3681 97.0592 -82.7188 98.0234 C -86.2292 108.5874 -86.9169 121.3507 -82.2754 131.6160 C -78.0735 139.8487 -72.4535 150.0102 -64.6875 155.1875 C -60.9770 154.7849 -57.6224 153.5110 -54.1250 152.2500 C -42.5990 148.3986 -32.6480 147.9784 -20.6875 149.1875 C -20.6875 149.5175 -20.6875 149.8475 -20.6875 150.1875 C -22.1242 150.2262 -22.1242 150.2262 -23.5898 150.2656 C -48.2254 151.1926 -69.1079 160.9307 -90.6875 172.1875 C -91.7149 172.7109 -92.7423 173.2342 -93.8008 173.7734 C -99.9632 176.9953 -105.4161 180.6493 -110.6875 185.1875 C -111.3733 185.7779 -112.0591 186.3683 -112.7656 186.9766 C -115.8721 189.8431 -117.4917 191.4697 -118.6250 195.6250 C -118.6456 196.4706 -118.6663 197.3162 -118.6875 198.1875 C -119.3016 198.2912 -119.9157 198.3949 -120.5483 198.5017 C -124.1874 199.6684 -125.5123 203.0898 -127.3125 206.2500 C -127.7442 207.0002 -128.1758 207.7505 -128.6206 208.5234 C -160.1091 264.9997 -169.7438 341.4327 -172.3125 405.3125 C -172.3662 406.6150 -172.3662 406.6150 -172.4209 407.9438 C -172.7131 416.0739 -172.8531 424.2088 -172.9177 432.3437 C -172.9308 433.8085 -172.9486 435.2732 -172.9715 436.7379 C -173.2786 447.8618 -173.2786 447.8618 -169.6875 458.1875 C -159.8611 465.2723 -144.0974 463.7568 -132.3750 464.3125 C -130.6517 464.3991 -128.9284 464.4864 -127.2051 464.5742 C -123.0329 464.7856 -118.8603 464.9889 -114.6875 465.1875 C -114.6875 465.5175 -114.6875 465.8475 -114.6875 466.1875 C -119.5581 466.2376 -124.4285 466.2736 -129.2993 466.2974 C -130.9497 466.3073 -132.6001 466.3209 -134.2505 466.3384 C -146.8026 466.4681 -158.6493 466.2002 -170.6875 462.1875 C -170.6875 469.1175 -170.6875 476.0475 -170.6875 483.1875 C -162.7288 485.5982 -155.2834 486.8221 -147.0000 487.3750 C -145.3574 487.4978 -145.3574 487.4978 -143.6816 487.6230 C -141.0175 487.8208 -138.3530 488.0088 -135.6875 488.1875 C -135.6875 488.5175 -135.6875 488.8475 -135.6875 489.1875 C -137.9975 489.1875 -140.3075 489.1875 -142.6875 489.1875 C -142.6875 489.8475 -142.6875 490.5075 -142.6875 491.1875 C -151.3633 491.6656 -159.3066 490.4431 -167.6875 488.1875 C -168.6130 488.0199 -169.5386 487.8523 -170.4922 487.6797 C -173.1976 485.8408 -173.1863 485.1000 -173.7969 481.9688 C -174.0339 480.2113 -174.2464 478.4505 -174.4375 476.6875 C -174.6057 475.3959 -174.6057 475.3959 -174.7773 474.0781 C -175.1118 471.4499 -175.4100 468.8224 -175.6875 466.1875 C -175.7704 465.4706 -175.8533 464.7537 -175.9388 464.0151 C -176.6283 457.7472 -176.8616 451.5532 -176.8906 445.2500 C -176.8976 444.2247 -176.9047 443.1993 -176.9119 442.1429 C -176.9294 438.8244 -176.9357 435.5061 -176.9375 432.1875 C -176.9382 431.0461 -176.9388 429.9048 -176.9395 428.7288 C -176.9221 410.1317 -176.1301 391.8848 -173.9472 373.4141 C -173.6673 371.0145 -173.4002 368.6137 -173.1353 366.2124 C -170.7913 345.0306 -168.0005 324.0707 -163.6875 303.1875 C -163.3446 301.4792 -163.0022 299.7709 -162.6602 298.0625 C -161.8749 294.1883 -161.0447 290.3258 -160.1880 286.4668 C -159.8524 284.9387 -159.5254 283.4087 -159.2065 281.8770 C -151.4655 244.7015 -137.5310 196.1900 -104.0625 174.2500 C -93.6649 168.1837 -82.5868 163.2734 -71.6875 158.1875 C -71.6875 154.1104 -73.8238 152.3005 -76.3125 149.3125 C -87.1892 135.7701 -90.2335 122.2655 -88.6875 105.1875 C -83.1993 71.0472 -61.0628 29.1451 -33.2344 7.8750 Z" fill="#191919" transform="translate(193.6875,31.8125)" />
    <path d="M0 0 C37.89763521 5.96490151 76.67213236 5.47157131 114.9375 5.8125 C114.9375 6.1425 114.9375 6.4725 114.9375 6.8125 C104.54745619 6.88281972 94.15747138 6.93571868 83.76723576 6.96793652 C78.93970746 6.98341971 74.112345 7.0043293 69.28491211 7.03881836 C48.29244918 7.18479347 27.71164102 7.25087114 6.9375 3.8125 C5.05027034 3.51354489 3.16298208 3.21495946 1.27563477 2.91674805 C-2.84541767 2.25840446 -6.9552867 1.55211312 -11.0625 0.8125 C-7.05985542 -1.85592972 -4.47659957 -0.81119886 0 0 Z " fill="#3A3A3A" transform="translate(116.0625,477.1875)" />
    <path d="M0 0 C0.33 0 0.66 0 1 0 C1.10655578 6.44070471 0.96205088 12.62641289 0 19 C3.63 19 7.26 19 11 19 C11 19.33 11 19.66 11 20 C-11.11 20 -33.22 20 -56 20 C-56 19.67 -56 19.34 -56 19 C-53.0703125 18.65820312 -53.0703125 18.65820312 -50.140625 18.31640625 C-48.02840276 18.04945378 -48.02840276 18.04945378 -46.13555908 17.48158264 C-43.88971878 16.97513086 -41.98864854 16.91597037 -39.69042969 16.97827148 C-38.84986023 16.99836777 -38.00929077 17.01846405 -37.14324951 17.03916931 C-36.24519592 17.06620438 -35.34714233 17.09323944 -34.421875 17.12109375 C-33.03201385 17.15651024 -33.03201385 17.15651024 -31.61407471 17.19264221 C-28.65922107 17.26911883 -25.70464013 17.35321207 -22.75 17.4375 C-20.74480494 17.4907367 -18.73959663 17.54347699 -16.734375 17.59570312 C-11.8227445 17.72471236 -6.91134478 17.86055221 -2 18 C-1.90912109 16.17662109 -1.90912109 16.17662109 -1.81640625 14.31640625 C-1.73201668 12.73175772 -1.6473679 11.14712298 -1.5625 9.5625 C-1.52318359 8.76005859 -1.48386719 7.95761719 -1.44335938 7.13085938 C-1.11328125 1.11328125 -1.11328125 1.11328125 0 0 Z " fill="#0D0D0D" transform="translate(220,161)" />
    <path d="M0 0 C0.33 0 0.66 0 1 0 C1 31.68 1 63.36 1 96 C0.67 96 0.34 96 0 96 C-0.97184945 76.25284627 -1.11101365 56.51780176 -1.125 36.75 C-1.12749756 35.50645752 -1.12999512 34.26291504 -1.13256836 32.98168945 C-1.13850226 29.37839023 -1.13694856 25.77517534 -1.1328125 22.171875 C-1.13479645 21.09359436 -1.1367804 20.01531372 -1.13882446 18.90435791 C-1.11950331 12.54338542 -0.76834959 6.31525315 0 0 Z " fill="#191919" transform="translate(307,290)" />
    <path d="M0 0 C5.55726425 8.33589638 7.13039819 19.28247931 9.1875 28.9375 C9.57711914 30.72510742 9.57711914 30.72510742 9.97460938 32.54882812 C10.65877866 35.69742112 11.33661479 38.84696593 12 42 C12.18916992 42.79825195 12.37833984 43.59650391 12.57324219 44.41894531 C13.12090503 47.73124026 13.11147113 50.91251458 13.09765625 54.26953125 C13.0962413 54.95053391 13.09482635 55.63153656 13.09336853 56.33317566 C13.08780298 58.49299647 13.07525703 60.65271089 13.0625 62.8125 C13.05748054 64.28320162 13.05291841 65.75390488 13.04882812 67.22460938 C13.03784488 70.8164404 13.02060422 74.4082098 13 78 C12.67 78 12.34 78 12 78 C11.93530518 77.05495605 11.87061035 76.10991211 11.80395508 75.13623047 C10.51463273 56.71528014 8.95211585 38.86435608 4 21 C3.40650298 18.81976849 2.81404182 16.63927579 2.22436523 14.45800781 C1.73280296 12.66522498 1.21720905 10.87907624 0.69921875 9.09375 C-0.00958411 5.95759431 -0.13026425 3.20353561 0 0 Z " fill="#333333" transform="translate(75,227)" />
    <path d="M0 0 C0.66 0 1.32 0 2 0 C1.60824241 4.99490925 0.64492018 9.40729301 -0.875 14.1875 C-6.386294 31.59682221 -9.01995116 49.78460942 -10 68 C-10.33 68 -10.66 68 -11 68 C-15.39197591 46.00659389 -6.47166526 20.71915093 0 0 Z " fill="#363636" transform="translate(319,228)" />
    <path d="M0 0 C1.54880859 0.15275391 1.54880859 0.15275391 3.12890625 0.30859375 C3.89074219 0.39238281 4.65257812 0.47617187 5.4375 0.5625 C5.4375 0.8925 5.4375 1.2225 5.4375 1.5625 C-13.77830979 3.74554295 -32.2093918 5.39011224 -51.5625 3.5625 C-51.5625 3.2325 -51.5625 2.9025 -51.5625 2.5625 C-50.51908447 2.50715088 -49.47566895 2.45180176 -48.40063477 2.39477539 C-44.49228938 2.18676391 -40.58413446 1.97534079 -36.67602539 1.76293945 C-34.99150438 1.67185376 -33.30693451 1.58166671 -31.62231445 1.49243164 C-29.1868744 1.36326312 -26.75163427 1.23075566 -24.31640625 1.09765625 C-23.57540176 1.05906998 -22.83439728 1.0204837 -22.07093811 0.98072815 C-17.54374524 0.72945487 -13.06523411 0.31261217 -8.56567383 -0.24938965 C-5.66669839 -0.52162128 -2.89018211 -0.29898436 0 0 Z " fill="#454545" transform="translate(269.5625,479.4375)" />
    <path d="M0 0 C0 0.33 0 0.66 0 1 C-13.83283504 3.9121758 -27.94611498 3.18995686 -42 3 C-38.78395272 1.11173497 -36.31388489 0.7199467 -32.60546875 0.62109375 C-31.56712891 0.58693359 -30.52878906 0.55277344 -29.45898438 0.51757812 C-27.83959961 0.47793945 -27.83959961 0.47793945 -26.1875 0.4375 C-18.05831579 0.2886847 -18.05831579 0.2886847 -9.984375 -0.5546875 C-6.45908865 -1.0807119 -3.4887952 -0.64079912 0 0 Z " fill="#393939" transform="translate(366,495)" />
    <path d="M0 0 C0.33 0 0.66 0 1 0 C1.12785452 6.37354777 0.72578838 12.39203141 -0.25 18.6875 C-0.38204834 19.55093018 -0.51409668 20.41436035 -0.65014648 21.30395508 C-1.83462843 28.65974478 -3.2678204 36.04234425 -6 43 C-6.99 43.495 -6.99 43.495 -8 44 C-7.85900879 43.29093506 -7.71801758 42.58187012 -7.57275391 41.85131836 C-3.97516374 23.83554967 -3.97516374 23.83554967 -1.359375 5.66015625 C-1 3 -1 3 0 0 Z " fill="#434343" transform="translate(266,128)" />
    <path d="M0 0 C23.43 0 46.86 0 71 0 C71 0.33 71 0.66 71 1 C47.57 1 24.14 1 0 1 C0 0.67 0 0.34 0 0 Z " fill="#191919" transform="translate(161,518)" />
    <path d="M0 0 C0.33 0 0.66 0 1 0 C1.07516846 0.55236328 1.15033691 1.10472656 1.2277832 1.67382812 C1.58529235 4.28313147 1.94791243 6.89167603 2.3125 9.5 C2.44495117 10.4480249 2.57740234 11.3960498 2.71386719 12.37280273 C3.74524031 19.59059452 5.04508369 26.71414752 6.546875 33.84765625 C6.95872845 36.7128781 6.98722825 38.32514509 6 41 C1.39343722 27.40900626 -0.55432301 14.28921539 0 0 Z " fill="#464646" transform="translate(127,128)" />
    <path d="M0 0 C-1.625 1.140625 -1.625 1.140625 -4 2 C-6.75 1.171875 -6.75 1.171875 -10 -0.25 C-19.11827236 -3.78742701 -28.30813739 -4.34672556 -38 -5 C-38 -5.33 -38 -5.66 -38 -6 C-25.68896511 -8.95374647 -11.3936687 -4.81209871 0 0 Z " fill="#272727" transform="translate(264,187)" />
  </g>
</svg>
